<svg width="210" height="56" viewBox="0 0 210 56" fill="none" xmlns="http://www.w3.org/2000/svg">
<g clip-path="url(#clip0_67_33)">
<mask id="path-1-outside-1_67_33" maskUnits="userSpaceOnUse" x="4" y="1" width="204" height="28" fill="black">
<rect fill="white" x="4" y="1" width="204" height="28"/>
<path d="M7.09375 27L20.7344 14.3438L8.09375 3H12.3438L22.8125 12.4062L32.9531 3H37.2031L24.9844 14.3438L39.0938 27H34.8438L22.8906 16.2812L11.3438 27H7.09375ZM68.6406 20.0625C68.6406 19.1354 68.5677 18.4062 68.4219 17.875C68.276 17.3438 67.9479 16.9531 67.4375 16.7031C66.9271 16.4427 66.1354 16.276 65.0625 16.2031C63.9896 16.1198 62.5208 16.0625 60.6562 16.0312L51.9688 15.9062C49.8229 15.875 48.099 15.7448 46.7969 15.5156C45.4948 15.2865 44.5104 14.9271 43.8438 14.4375C43.1771 13.9375 42.7292 13.2708 42.5 12.4375C42.2812 11.6042 42.1719 10.5625 42.1719 9.3125C42.1719 7.94792 42.3229 6.82292 42.625 5.9375C42.9375 5.05208 43.4948 4.35938 44.2969 3.85938C45.1094 3.35938 46.2552 3.01042 47.7344 2.8125C49.2135 2.60417 51.125 2.5 53.4688 2.5H60.1562C62.2812 2.5 64.0521 2.56771 65.4688 2.70312C66.8854 2.83854 68.0104 3.15104 68.8438 3.64062C69.6771 4.13021 70.2708 4.89062 70.625 5.92188C70.9896 6.95312 71.1719 8.36979 71.1719 10.1719H68.1719C68.1719 8.77604 68.0365 7.72396 67.7656 7.01562C67.5052 6.29688 67.0677 5.80729 66.4531 5.54688C65.849 5.28646 65.0312 5.14583 64 5.125C62.9688 5.10417 61.6875 5.09375 60.1562 5.09375H53.625C51.7604 5.09375 50.2656 5.13021 49.1406 5.20312C48.026 5.27604 47.1823 5.44271 46.6094 5.70312C46.0365 5.96354 45.651 6.38021 45.4531 6.95312C45.2656 7.52604 45.1719 8.3125 45.1719 9.3125C45.1719 10.1562 45.2396 10.8333 45.375 11.3438C45.5104 11.8542 45.8125 12.2448 46.2812 12.5156C46.7604 12.776 47.4948 12.9583 48.4844 13.0625C49.474 13.1562 50.8229 13.2135 52.5312 13.2344L61.8438 13.3594C64.0312 13.3906 65.776 13.5208 67.0781 13.75C68.3906 13.9688 69.3698 14.3281 70.0156 14.8281C70.6719 15.3281 71.1042 16.0052 71.3125 16.8594C71.5312 17.7031 71.6406 18.7708 71.6406 20.0625C71.6406 21.4688 71.5052 22.651 71.2344 23.6094C70.974 24.5573 70.4635 25.3177 69.7031 25.8906C68.9427 26.4635 67.8438 26.875 66.4062 27.125C64.9688 27.375 63.0781 27.5 60.7344 27.5H53.4219C51.2865 27.5 49.4948 27.4062 48.0469 27.2188C46.599 27.0312 45.4427 26.6562 44.5781 26.0938C43.724 25.5208 43.1094 24.6719 42.7344 23.5469C42.3594 22.4219 42.1719 20.9219 42.1719 19.0469H45.1719C45.1719 20.5156 45.2917 21.651 45.5312 22.4531C45.7708 23.2552 46.1875 23.8333 46.7812 24.1875C47.3854 24.5312 48.224 24.7396 49.2969 24.8125C50.3802 24.875 51.7552 24.9062 53.4219 24.9062H60.5781C62.4427 24.9062 63.9167 24.849 65 24.7344C66.0833 24.6094 66.8854 24.3802 67.4062 24.0469C67.9271 23.7031 68.2604 23.2135 68.4062 22.5781C68.5625 21.9427 68.6406 21.1042 68.6406 20.0625ZM76.625 27V3H79.625V13.5H101.625V3H104.625V27H101.625V16H79.625V27H76.625ZM108.688 27L122.688 3H126.688L140.688 27H137.188L134.188 21.5H115.188L112.188 27H108.688ZM116.688 19H132.688L124.688 5L116.688 19ZM144.75 3H160.812C163.156 3 165.042 3.10417 166.469 3.3125C167.906 3.52083 168.995 3.88021 169.734 4.39062C170.474 4.90104 170.974 5.59896 171.234 6.48438C171.495 7.36979 171.625 8.48958 171.625 9.84375V10.4688C171.625 11.7188 171.474 12.7969 171.172 13.7031C170.88 14.599 170.312 15.3281 169.469 15.8906C168.625 16.4427 167.375 16.8333 165.719 17.0625L170.938 27H167.938L162.828 17.2812C162.62 17.2917 162.401 17.2969 162.172 17.2969C161.953 17.2969 161.724 17.2969 161.484 17.2969H147.75V27H144.75V3ZM147.75 14.7031H161.016C162.797 14.7031 164.198 14.6458 165.219 14.5312C166.25 14.4062 167.005 14.1927 167.484 13.8906C167.974 13.5885 168.286 13.1615 168.422 12.6094C168.557 12.0573 168.625 11.3438 168.625 10.4688V9.84375C168.625 8.85417 168.531 8.07292 168.344 7.5C168.156 6.92708 167.781 6.50521 167.219 6.23438C166.656 5.96354 165.818 5.79167 164.703 5.71875C163.589 5.63542 162.099 5.59375 160.234 5.59375H147.75V14.7031ZM177.312 27V3H180.312V13.5H184.297L199.812 3H204.312L187.312 14.75L204.812 27H200.312L184.312 16H180.312V27H177.312Z"/>
</mask>
<path d="M7.09375 27L20.7344 14.3438L8.09375 3H12.3438L22.8125 12.4062L32.9531 3H37.2031L24.9844 14.3438L39.0938 27H34.8438L22.8906 16.2812L11.3438 27H7.09375ZM68.6406 20.0625C68.6406 19.1354 68.5677 18.4062 68.4219 17.875C68.276 17.3438 67.9479 16.9531 67.4375 16.7031C66.9271 16.4427 66.1354 16.276 65.0625 16.2031C63.9896 16.1198 62.5208 16.0625 60.6562 16.0312L51.9688 15.9062C49.8229 15.875 48.099 15.7448 46.7969 15.5156C45.4948 15.2865 44.5104 14.9271 43.8438 14.4375C43.1771 13.9375 42.7292 13.2708 42.5 12.4375C42.2812 11.6042 42.1719 10.5625 42.1719 9.3125C42.1719 7.94792 42.3229 6.82292 42.625 5.9375C42.9375 5.05208 43.4948 4.35938 44.2969 3.85938C45.1094 3.35938 46.2552 3.01042 47.7344 2.8125C49.2135 2.60417 51.125 2.5 53.4688 2.5H60.1562C62.2812 2.5 64.0521 2.56771 65.4688 2.70312C66.8854 2.83854 68.0104 3.15104 68.8438 3.64062C69.6771 4.13021 70.2708 4.89062 70.625 5.92188C70.9896 6.95312 71.1719 8.36979 71.1719 10.1719H68.1719C68.1719 8.77604 68.0365 7.72396 67.7656 7.01562C67.5052 6.29688 67.0677 5.80729 66.4531 5.54688C65.849 5.28646 65.0312 5.14583 64 5.125C62.9688 5.10417 61.6875 5.09375 60.1562 5.09375H53.625C51.7604 5.09375 50.2656 5.13021 49.1406 5.20312C48.026 5.27604 47.1823 5.44271 46.6094 5.70312C46.0365 5.96354 45.651 6.38021 45.4531 6.95312C45.2656 7.52604 45.1719 8.3125 45.1719 9.3125C45.1719 10.1562 45.2396 10.8333 45.375 11.3438C45.5104 11.8542 45.8125 12.2448 46.2812 12.5156C46.7604 12.776 47.4948 12.9583 48.4844 13.0625C49.474 13.1562 50.8229 13.2135 52.5312 13.2344L61.8438 13.3594C64.0312 13.3906 65.776 13.5208 67.0781 13.75C68.3906 13.9688 69.3698 14.3281 70.0156 14.8281C70.6719 15.3281 71.1042 16.0052 71.3125 16.8594C71.5312 17.7031 71.6406 18.7708 71.6406 20.0625C71.6406 21.4688 71.5052 22.651 71.2344 23.6094C70.974 24.5573 70.4635 25.3177 69.7031 25.8906C68.9427 26.4635 67.8438 26.875 66.4062 27.125C64.9688 27.375 63.0781 27.5 60.7344 27.5H53.4219C51.2865 27.5 49.4948 27.4062 48.0469 27.2188C46.599 27.0312 45.4427 26.6562 44.5781 26.0938C43.724 25.5208 43.1094 24.6719 42.7344 23.5469C42.3594 22.4219 42.1719 20.9219 42.1719 19.0469H45.1719C45.1719 20.5156 45.2917 21.651 45.5312 22.4531C45.7708 23.2552 46.1875 23.8333 46.7812 24.1875C47.3854 24.5312 48.224 24.7396 49.2969 24.8125C50.3802 24.875 51.7552 24.9062 53.4219 24.9062H60.5781C62.4427 24.9062 63.9167 24.849 65 24.7344C66.0833 24.6094 66.8854 24.3802 67.4062 24.0469C67.9271 23.7031 68.2604 23.2135 68.4062 22.5781C68.5625 21.9427 68.6406 21.1042 68.6406 20.0625ZM76.625 27V3H79.625V13.5H101.625V3H104.625V27H101.625V16H79.625V27H76.625ZM108.688 27L122.688 3H126.688L140.688 27H137.188L134.188 21.5H115.188L112.188 27H108.688ZM116.688 19H132.688L124.688 5L116.688 19ZM144.75 3H160.812C163.156 3 165.042 3.10417 166.469 3.3125C167.906 3.52083 168.995 3.88021 169.734 4.39062C170.474 4.90104 170.974 5.59896 171.234 6.48438C171.495 7.36979 171.625 8.48958 171.625 9.84375V10.4688C171.625 11.7188 171.474 12.7969 171.172 13.7031C170.88 14.599 170.312 15.3281 169.469 15.8906C168.625 16.4427 167.375 16.8333 165.719 17.0625L170.938 27H167.938L162.828 17.2812C162.62 17.2917 162.401 17.2969 162.172 17.2969C161.953 17.2969 161.724 17.2969 161.484 17.2969H147.75V27H144.75V3ZM147.75 14.7031H161.016C162.797 14.7031 164.198 14.6458 165.219 14.5312C166.25 14.4062 167.005 14.1927 167.484 13.8906C167.974 13.5885 168.286 13.1615 168.422 12.6094C168.557 12.0573 168.625 11.3438 168.625 10.4688V9.84375C168.625 8.85417 168.531 8.07292 168.344 7.5C168.156 6.92708 167.781 6.50521 167.219 6.23438C166.656 5.96354 165.818 5.79167 164.703 5.71875C163.589 5.63542 162.099 5.59375 160.234 5.59375H147.75V14.7031ZM177.312 27V3H180.312V13.5H184.297L199.812 3H204.312L187.312 14.75L204.812 27H200.312L184.312 16H180.312V27H177.312Z" fill="#0C2A42"/>
<path d="M7.09375 27L6.41359 26.2669L4.54573 28H7.09375V27ZM20.7344 14.3438L21.4145 15.0768L22.2179 14.3314L21.4023 13.5995L20.7344 14.3438ZM8.09375 3V2H5.48219L7.42585 3.74425L8.09375 3ZM12.3438 3L13.0121 2.25616L12.727 2H12.3438V3ZM22.8125 12.4062L22.1441 13.1501L22.8232 13.7603L23.4926 13.1394L22.8125 12.4062ZM32.9531 3V2H32.5607L32.2731 2.26684L32.9531 3ZM37.2031 3L37.8835 3.73286L39.75 2H37.2031V3ZM24.9844 14.3438L24.304 13.6109L23.5009 14.3564L24.3166 15.0882L24.9844 14.3438ZM39.0938 27V28H41.7062L39.7615 26.2556L39.0938 27ZM34.8438 27L34.1761 27.7445L34.4611 28H34.8438V27ZM22.8906 16.2812L23.5582 15.5367L22.879 14.9276L22.2103 15.5484L22.8906 16.2812ZM11.3438 27V28H11.7364L12.0241 27.7329L11.3438 27ZM7.09375 27L7.77391 27.7331L21.4145 15.0768L20.7344 14.3438L20.0542 13.6107L6.41359 26.2669L7.09375 27ZM20.7344 14.3438L21.4023 13.5995L8.76165 2.25575L8.09375 3L7.42585 3.74425L20.0665 15.088L20.7344 14.3438ZM8.09375 3V4H12.3438V3V2H8.09375V3ZM12.3438 3L11.6754 3.74384L22.1441 13.1501L22.8125 12.4062L23.4809 11.6624L13.0121 2.25616L12.3438 3ZM22.8125 12.4062L23.4926 13.1394L33.6332 3.73316L32.9531 3L32.2731 2.26684L22.1324 11.6731L22.8125 12.4062ZM32.9531 3V4H37.2031V3V2H32.9531V3ZM37.2031 3L36.5227 2.26714L24.304 13.6109L24.9844 14.3438L25.6648 15.0766L37.8835 3.73286L37.2031 3ZM24.9844 14.3438L24.3166 15.0882L38.426 27.7444L39.0938 27L39.7615 26.2556L25.6521 13.5993L24.9844 14.3438ZM39.0938 27V26H34.8438V27V28H39.0938V27ZM34.8438 27L35.5114 26.2555L23.5582 15.5367L22.8906 16.2812L22.223 17.0258L34.1761 27.7445L34.8438 27ZM22.8906 16.2812L22.2103 15.5484L10.6634 26.2671L11.3438 27L12.0241 27.7329L23.571 17.0141L22.8906 16.2812ZM11.3438 27V26H7.09375V27V28H11.3438V27ZM67.4375 16.7031L66.983 17.5939L66.9903 17.5976L66.9976 17.6012L67.4375 16.7031ZM65.0625 16.2031L64.9851 17.2002L64.9947 17.2008L65.0625 16.2031ZM60.6562 16.0312L60.673 15.0314L60.6706 15.0314L60.6562 16.0312ZM51.9688 15.9062L51.9542 16.9061L51.9544 16.9061L51.9688 15.9062ZM46.7969 15.5156L46.6235 16.5005L46.7969 15.5156ZM43.8438 14.4375L43.2437 15.2375L43.2518 15.2435L43.8438 14.4375ZM42.5 12.4375L41.5327 12.6914L41.5358 12.7027L42.5 12.4375ZM42.625 5.9375L41.682 5.60466L41.6786 5.6146L42.625 5.9375ZM44.2969 3.85938L43.7728 3.0077L43.7679 3.01076L44.2969 3.85938ZM47.7344 2.8125L47.867 3.80369L47.8738 3.80273L47.7344 2.8125ZM70.625 5.92188L69.6792 6.2467L69.6822 6.25519L70.625 5.92188ZM71.1719 10.1719V11.1719H72.1719V10.1719H71.1719ZM68.1719 10.1719H67.1719V11.1719H68.1719V10.1719ZM67.7656 7.01562L66.8254 7.35627L66.8284 7.36455L66.8316 7.37276L67.7656 7.01562ZM66.4531 5.54688L66.0573 6.46522L66.063 6.46763L66.4531 5.54688ZM49.1406 5.20312L49.0759 4.20522L49.0753 4.20526L49.1406 5.20312ZM45.4531 6.95312L44.5079 6.6266L44.5053 6.63433L44.5027 6.64209L45.4531 6.95312ZM45.375 11.3438L44.4084 11.6002L45.375 11.3438ZM46.2812 12.5156L45.781 13.3815L45.7923 13.388L45.8037 13.3942L46.2812 12.5156ZM48.4844 13.0625L48.3797 14.0571L48.3901 14.058L48.4844 13.0625ZM52.5312 13.2344L52.5447 12.2345L52.5434 12.2344L52.5312 13.2344ZM61.8438 13.3594L61.858 12.3595L61.8572 12.3595L61.8438 13.3594ZM67.0781 13.75L66.9048 14.7349L66.9137 14.7364L67.0781 13.75ZM70.0156 14.8281L69.4034 15.6189L69.4096 15.6236L70.0156 14.8281ZM71.3125 16.8594L70.341 17.0963L70.3427 17.1033L70.3445 17.1103L71.3125 16.8594ZM71.2344 23.6094L70.272 23.3374L70.2701 23.3445L71.2344 23.6094ZM44.5781 26.0938L44.021 26.9243L44.0328 26.932L44.5781 26.0938ZM42.1719 19.0469V18.0469H41.1719V19.0469H42.1719ZM45.1719 19.0469H46.1719V18.0469H45.1719V19.0469ZM46.7812 24.1875L46.269 25.0463L46.2778 25.0516L46.2867 25.0567L46.7812 24.1875ZM49.2969 24.8125L49.2291 25.8103L49.2393 25.8108L49.2969 24.8125ZM65 24.7344L65.1052 25.7289L65.1146 25.7278L65 24.7344ZM67.4062 24.0469L67.9454 24.8892L67.9571 24.8815L67.4062 24.0469ZM68.4062 22.5781L67.4352 22.3393L67.4333 22.3469L67.4316 22.3544L68.4062 22.5781ZM68.6406 20.0625H69.6406C69.6406 19.098 69.5664 18.2666 69.3862 17.6103L68.4219 17.875L67.4576 18.1397C67.5691 18.5459 67.6406 19.1729 67.6406 20.0625H68.6406ZM68.4219 17.875L69.3862 17.6103C69.1618 16.7926 68.636 16.1766 67.8774 15.8051L67.4375 16.7031L66.9976 17.6012C67.2598 17.7296 67.3903 17.8949 67.4576 18.1397L68.4219 17.875ZM67.4375 16.7031L67.892 15.8124C67.1972 15.4579 66.2406 15.2809 65.1303 15.2054L65.0625 16.2031L64.9947 17.2008C66.0303 17.2712 66.657 17.4275 66.983 17.5939L67.4375 16.7031ZM65.0625 16.2031L65.1399 15.2061C64.0374 15.1205 62.5455 15.0628 60.673 15.0314L60.6562 16.0312L60.6395 17.0311C62.4962 17.0622 63.9417 17.1191 64.9851 17.2001L65.0625 16.2031ZM60.6562 16.0312L60.6706 15.0314L51.9831 14.9064L51.9688 15.9062L51.9544 16.9061L60.6419 17.0311L60.6562 16.0312ZM51.9688 15.9062L51.9833 14.9064C49.8623 14.8755 48.1978 14.7468 46.9702 14.5308L46.7969 15.5156L46.6235 16.5005C48.0001 16.7428 49.7835 16.8745 51.9542 16.9061L51.9688 15.9062ZM46.7969 15.5156L46.9702 14.5308C45.7387 14.314 44.9259 13.9915 44.4357 13.6315L43.8438 14.4375L43.2518 15.2435C44.0949 15.8626 45.2509 16.2589 46.6235 16.5005L46.7969 15.5156ZM43.8438 14.4375L44.4437 13.6375C43.9614 13.2757 43.6369 12.8005 43.4642 12.1723L42.5 12.4375L41.5358 12.7027C41.8214 13.7412 42.3928 14.5993 43.2438 15.2375L43.8438 14.4375ZM42.5 12.4375L43.4672 12.1836C43.2776 11.4612 43.1719 10.5117 43.1719 9.3125H42.1719H41.1719C41.1719 10.6133 41.2849 11.7472 41.5328 12.6914L42.5 12.4375ZM42.1719 9.3125H43.1719C43.1719 8.01206 43.3171 7.00598 43.5714 6.2604L42.625 5.9375L41.6786 5.6146C41.3288 6.63985 41.1719 7.88377 41.1719 9.3125H42.1719ZM42.625 5.9375L43.568 6.27032C43.8045 5.60035 44.2149 5.08886 44.8259 4.70799L44.2969 3.85938L43.7679 3.01076C42.7747 3.62989 42.0705 4.50381 41.682 5.60468L42.625 5.9375ZM44.2969 3.85938L44.821 4.71103C45.4659 4.31413 46.4566 3.99238 47.867 3.80367L47.7344 2.8125L47.6018 1.82133C46.0538 2.02846 44.7528 2.40462 43.7728 3.00772L44.2969 3.85938ZM47.7344 2.8125L47.8738 3.80273C49.2885 3.60347 51.1486 3.5 53.4688 3.5V2.5V1.5C51.1014 1.5 49.1385 1.60486 47.5949 1.82227L47.7344 2.8125ZM53.4688 2.5V3.5H60.1562V2.5V1.5H53.4688V2.5ZM60.1562 2.5V3.5C62.2633 3.5 63.9998 3.56727 65.3736 3.69859L65.4688 2.70312L65.5639 1.70766C64.1043 1.56814 62.2992 1.5 60.1562 1.5V2.5ZM65.4688 2.70312L65.3736 3.69859C66.708 3.82614 67.6747 4.1136 68.3372 4.50284L68.8438 3.64062L69.3503 2.77841C68.3462 2.18849 67.0628 1.85094 65.5639 1.70766L65.4688 2.70312ZM68.8438 3.64062L68.3372 4.50284C68.9382 4.85591 69.392 5.41041 69.6792 6.24669L70.625 5.92188L71.5708 5.59706C71.1497 4.37084 70.416 3.40451 69.3503 2.77841L68.8438 3.64062ZM70.625 5.92188L69.6822 6.25519C69.9923 7.13245 70.1719 8.41969 70.1719 10.1719H71.1719H72.1719C72.1719 8.31989 71.9868 6.7738 71.5678 5.58856L70.625 5.92188ZM71.1719 10.1719V9.17188H68.1719V10.1719V11.1719H71.1719V10.1719ZM68.1719 10.1719H69.1719C69.1719 8.73889 69.0366 7.53973 68.6997 6.65849L67.7656 7.01562L66.8316 7.37276C67.0363 7.90819 67.1719 8.81319 67.1719 10.1719H68.1719ZM67.7656 7.01562L68.7058 6.67498C68.3658 5.73654 67.7521 5.01121 66.8433 4.62612L66.4531 5.54688L66.063 6.46763C66.3833 6.60337 66.6446 6.85721 66.8254 7.35627L67.7656 7.01562ZM66.4531 5.54688L66.849 4.62855C66.078 4.29625 65.1155 4.14733 64.0202 4.1252L64 5.125L63.9798 6.1248C64.947 6.14433 65.6199 6.27667 66.0573 6.4652L66.4531 5.54688ZM64 5.125L64.0202 4.1252C62.9798 4.10419 61.6914 4.09375 60.1562 4.09375V5.09375V6.09375C61.6836 6.09375 62.9577 6.10415 63.9798 6.1248L64 5.125ZM60.1562 5.09375V4.09375H53.625V5.09375V6.09375H60.1562V5.09375ZM53.625 5.09375V4.09375C51.7508 4.09375 50.2318 4.1303 49.0759 4.20522L49.1406 5.20312L49.2053 6.20103C50.2995 6.13011 51.77 6.09375 53.625 6.09375V5.09375ZM49.1406 5.20312L49.0753 4.20526C47.9188 4.28092 46.9325 4.45779 46.1956 4.79276L46.6094 5.70312L47.0232 6.61349C47.4321 6.42763 48.1333 6.27116 49.2059 6.20099L49.1406 5.20312ZM46.6094 5.70312L46.1956 4.79276C45.3837 5.16179 44.7992 5.78348 44.5079 6.6266L45.4531 6.95312L46.3983 7.27965C46.5029 6.97694 46.6892 6.76529 47.0232 6.61349L46.6094 5.70312ZM45.4531 6.95312L44.5027 6.64209C44.2678 7.35981 44.1719 8.26677 44.1719 9.3125H45.1719H46.1719C46.1719 8.35823 46.2634 7.69228 46.4035 7.26416L45.4531 6.95312ZM45.1719 9.3125H44.1719C44.1719 10.1978 44.2417 10.9716 44.4084 11.6002L45.375 11.3438L46.3416 11.0873C46.2375 10.6951 46.1719 10.1147 46.1719 9.3125H45.1719ZM45.375 11.3438L44.4084 11.6002C44.614 12.3748 45.0884 12.9814 45.781 13.3815L46.2812 12.5156L46.7815 11.6498C46.5366 11.5082 46.4069 11.3335 46.3416 11.0873L45.375 11.3438ZM46.2812 12.5156L45.8037 13.3942C46.4575 13.7496 47.3493 13.9485 48.3797 14.057L48.4844 13.0625L48.5891 12.068C47.6403 11.9681 47.0633 11.8025 46.7588 11.637L46.2812 12.5156ZM48.4844 13.0625L48.3901 14.058C49.4195 14.1556 50.7997 14.2133 52.5191 14.2343L52.5312 13.2344L52.5434 12.2344C50.8461 12.2137 49.5284 12.1569 48.5787 12.067L48.4844 13.0625ZM52.5312 13.2344L52.5178 14.2343L61.8303 14.3593L61.8438 13.3594L61.8572 12.3595L52.5447 12.2345L52.5312 13.2344ZM61.8438 13.3594L61.8295 14.3593C63.9933 14.3902 65.6781 14.519 66.9048 14.7349L67.0781 13.75L67.2515 12.7651C65.874 12.5227 64.0692 12.3911 61.858 12.3595L61.8438 13.3594ZM67.0781 13.75L66.9137 14.7364C68.1545 14.9432 68.946 15.2647 69.4035 15.6188L70.0156 14.8281L70.6278 14.0374C69.7936 13.3915 68.6268 12.9943 67.2425 12.7636L67.0781 13.75ZM70.0156 14.8281L69.4096 15.6236C69.8712 15.9753 70.1831 16.449 70.341 17.0963L71.3125 16.8594L72.284 16.6224C72.0252 15.5614 71.4726 14.681 70.6217 14.0327L70.0156 14.8281ZM71.3125 16.8594L70.3445 17.1103C70.5345 17.843 70.6406 18.819 70.6406 20.0625H71.6406H72.6406C72.6406 18.7227 72.528 17.5632 72.2805 16.6084L71.3125 16.8594ZM71.6406 20.0625H70.6406C70.6406 21.4114 70.51 22.4956 70.2721 23.3374L71.2344 23.6094L72.1967 23.8813C72.5005 22.8065 72.6406 21.5261 72.6406 20.0625H71.6406ZM71.2344 23.6094L70.2701 23.3445C70.0662 24.0868 69.6792 24.6566 69.1014 25.0919L69.7031 25.8906L70.3049 26.6893C71.2479 25.9788 71.8817 25.0278 72.1986 23.8743L71.2344 23.6094ZM69.7031 25.8906L69.1014 25.0919C68.5173 25.532 67.5918 25.9038 66.2349 26.1398L66.4062 27.125L66.5776 28.1102C68.0957 27.8462 69.3681 27.3951 70.3049 26.6893L69.7031 25.8906ZM66.4062 27.125L66.2349 26.1398C64.8774 26.3759 63.0507 26.5 60.7344 26.5V27.5V28.5C63.1056 28.5 65.0601 28.3741 66.5776 28.1102L66.4062 27.125ZM60.7344 27.5V26.5H53.4219V27.5V28.5H60.7344V27.5ZM53.4219 27.5V26.5C51.3117 26.5 49.5661 26.4071 48.1753 26.227L48.0469 27.2188L47.9184 28.2105C49.4235 28.4054 51.2612 28.5 53.4219 28.5V27.5ZM48.0469 27.2188L48.1753 26.227C46.8184 26.0513 45.8213 25.7096 45.1235 25.2555L44.5781 26.0938L44.0328 26.932C45.0641 27.6029 46.3795 28.0112 47.9184 28.2105L48.0469 27.2188ZM44.5781 26.0938L45.1352 25.2633C44.4923 24.832 43.9992 24.1792 43.6831 23.2306L42.7344 23.5469L41.7857 23.8631C42.2195 25.1646 42.9557 26.2096 44.0211 26.9242L44.5781 26.0938ZM42.7344 23.5469L43.6831 23.2306C43.3559 22.2491 43.1719 20.8693 43.1719 19.0469H42.1719H41.1719C41.1719 20.9745 41.3629 22.5946 41.7857 23.8631L42.7344 23.5469ZM42.1719 19.0469V20.0469H45.1719V19.0469V18.0469H42.1719V19.0469ZM45.1719 19.0469H44.1719C44.1719 20.5513 44.2924 21.7998 44.5731 22.7393L45.5312 22.4531L46.4894 22.1669C46.2909 21.5023 46.1719 20.48 46.1719 19.0469H45.1719ZM45.5312 22.4531L44.5731 22.7393C44.8684 23.7281 45.4167 24.538 46.269 25.0463L46.7812 24.1875L47.2935 23.3287C46.9583 23.1287 46.6732 22.7823 46.4894 22.1669L45.5312 22.4531ZM46.7812 24.1875L46.2867 25.0567C47.0737 25.5044 48.0802 25.7321 49.2291 25.8102L49.2969 24.8125L49.3647 23.8148C48.3678 23.747 47.6971 23.5581 47.2758 23.3183L46.7812 24.1875ZM49.2969 24.8125L49.2393 25.8108C50.349 25.8749 51.745 25.9062 53.4219 25.9062V24.9062V23.9062C51.7654 23.9062 50.4114 23.8751 49.3545 23.8142L49.2969 24.8125ZM53.4219 24.9062V25.9062H60.5781V24.9062V23.9062H53.4219V24.9062ZM60.5781 24.9062V25.9062C62.4569 25.9062 63.9709 25.8488 65.1052 25.7288L65 24.7344L64.8948 23.7399C63.8624 23.8491 62.4285 23.9062 60.5781 23.9062V24.9062ZM65 24.7344L65.1146 25.7278C66.2505 25.5967 67.233 25.345 67.9453 24.8891L67.4062 24.0469L66.8672 23.2046C66.5378 23.4154 65.9162 23.622 64.8854 23.741L65 24.7344ZM67.4062 24.0469L67.9571 24.8815C68.7029 24.3893 69.1804 23.6754 69.3809 22.8018L68.4062 22.5781L67.4316 22.3544C67.3404 22.7517 67.1513 23.017 66.8554 23.2123L67.4062 24.0469ZM68.4062 22.5781L69.3773 22.8169C69.5606 22.0714 69.6406 21.1433 69.6406 20.0625H68.6406H67.6406C67.6406 21.0651 67.5644 21.814 67.4352 22.3393L68.4062 22.5781ZM76.625 27H75.625V28H76.625V27ZM76.625 3V2H75.625V3H76.625ZM79.625 3H80.625V2H79.625V3ZM79.625 13.5H78.625V14.5H79.625V13.5ZM101.625 13.5V14.5H102.625V13.5H101.625ZM101.625 3V2H100.625V3H101.625ZM104.625 3H105.625V2H104.625V3ZM104.625 27V28H105.625V27H104.625ZM101.625 27H100.625V28H101.625V27ZM101.625 16H102.625V15H101.625V16ZM79.625 16V15H78.625V16H79.625ZM79.625 27V28H80.625V27H79.625ZM76.625 27H77.625V3H76.625H75.625V27H76.625ZM76.625 3V4H79.625V3V2H76.625V3ZM79.625 3H78.625V13.5H79.625H80.625V3H79.625ZM79.625 13.5V14.5H101.625V13.5V12.5H79.625V13.5ZM101.625 13.5H102.625V3H101.625H100.625V13.5H101.625ZM101.625 3V4H104.625V3V2H101.625V3ZM104.625 3H103.625V27H104.625H105.625V3H104.625ZM104.625 27V26H101.625V27V28H104.625V27ZM101.625 27H102.625V16H101.625H100.625V27H101.625ZM101.625 16V15H79.625V16V17H101.625V16ZM79.625 16H78.625V27H79.625H80.625V16H79.625ZM79.625 27V26H76.625V27V28H79.625V27ZM108.688 27L107.824 26.4961L106.946 28H108.688V27ZM122.688 3V2H122.113L121.824 2.49613L122.688 3ZM126.688 3L127.551 2.49613L127.262 2H126.688V3ZM140.688 27V28H142.429L141.551 26.4961L140.688 27ZM137.188 27L136.31 27.4789L136.594 28H137.188V27ZM134.188 21.5L135.065 21.0211L134.781 20.5H134.188V21.5ZM115.188 21.5V20.5H114.594L114.31 21.0211L115.188 21.5ZM112.188 27V28H112.781L113.065 27.4789L112.188 27ZM116.688 19L115.819 18.5039L114.964 20H116.688V19ZM132.688 19V20H134.411L133.556 18.5039L132.688 19ZM124.688 5L125.556 4.50386L124.688 2.98444L123.819 4.50386L124.688 5ZM108.688 27L109.551 27.5039L123.551 3.50387L122.688 3L121.824 2.49613L107.824 26.4961L108.688 27ZM122.688 3V4H126.688V3V2H122.688V3ZM126.688 3L125.824 3.50387L139.824 27.5039L140.688 27L141.551 26.4961L127.551 2.49613L126.688 3ZM140.688 27V26H137.188V27V28H140.688V27ZM137.188 27L138.065 26.5211L135.065 21.0211L134.188 21.5L133.31 21.9789L136.31 27.4789L137.188 27ZM134.188 21.5V20.5H115.188V21.5V22.5H134.188V21.5ZM115.188 21.5L114.31 21.0211L111.31 26.5211L112.188 27L113.065 27.4789L116.065 21.9789L115.188 21.5ZM112.188 27V26H108.688V27V28H112.188V27ZM116.688 19V20H132.688V19V18H116.688V19ZM132.688 19L133.556 18.5039L125.556 4.50386L124.688 5L123.819 5.49614L131.819 19.4961L132.688 19ZM124.688 5L123.819 4.50386L115.819 18.5039L116.688 19L117.556 19.4961L125.556 5.49614L124.688 5ZM144.75 3V2H143.75V3H144.75ZM166.469 3.3125L166.324 4.30201L166.325 4.30216L166.469 3.3125ZM171.172 13.7031L170.223 13.3869L170.221 13.3935L171.172 13.7031ZM169.469 15.8906L170.016 16.7274L170.023 16.7227L169.469 15.8906ZM165.719 17.0625L165.582 16.0719L164.172 16.2671L164.833 17.5274L165.719 17.0625ZM170.938 27V28H172.592L171.823 26.5351L170.938 27ZM167.938 27L167.052 27.4653L167.333 28H167.938V27ZM162.828 17.2812L163.713 16.8159L163.416 16.2506L162.778 16.2825L162.828 17.2812ZM147.75 17.2969V16.2969H146.75V17.2969H147.75ZM147.75 27V28H148.75V27H147.75ZM144.75 27H143.75V28H144.75V27ZM147.75 14.7031H146.75V15.7031H147.75V14.7031ZM165.219 14.5312L165.33 15.525L165.339 15.524L165.219 14.5312ZM167.484 13.8906L166.959 13.0395L166.951 13.0447L167.484 13.8906ZM164.703 5.71875L164.629 6.71601L164.638 6.71662L164.703 5.71875ZM147.75 5.59375V4.59375H146.75V5.59375H147.75ZM144.75 3V4H160.812V3V2H144.75V3ZM160.812 3V4C163.134 4 164.965 4.1036 166.324 4.30201L166.469 3.3125L166.613 2.32299C165.118 2.10473 163.179 2 160.812 2V3ZM166.469 3.3125L166.325 4.30216C167.694 4.50049 168.608 4.82856 169.166 5.21365L169.734 4.39062L170.302 3.5676C169.381 2.93186 168.119 2.54117 166.612 2.32284L166.469 3.3125ZM169.734 4.39062L169.166 5.21365C169.712 5.59016 170.077 6.09447 170.275 6.76654L171.234 6.48438L172.194 6.20221C171.871 5.10345 171.236 4.21192 170.302 3.5676L169.734 4.39062ZM171.234 6.48438L170.275 6.76654C170.499 7.52843 170.625 8.54489 170.625 9.84375H171.625H172.625C172.625 8.43427 172.49 7.21115 172.194 6.20221L171.234 6.48438ZM171.625 9.84375H170.625V10.4688H171.625H172.625V9.84375H171.625ZM171.625 10.4688H170.625C170.625 11.6425 170.483 12.6085 170.223 13.3869L171.172 13.7031L172.121 14.0194C172.465 12.9852 172.625 11.795 172.625 10.4688H171.625ZM171.172 13.7031L170.221 13.3935C170.004 14.0588 169.586 14.6106 168.914 15.0586L169.469 15.8906L170.023 16.7227C171.039 16.0457 171.756 15.1391 172.123 14.0127L171.172 13.7031ZM169.469 15.8906L168.921 15.0538C168.257 15.4885 167.176 15.8514 165.582 16.0719L165.719 17.0625L165.856 18.0531C167.574 17.8153 168.993 17.3969 170.016 16.7274L169.469 15.8906ZM165.719 17.0625L164.833 17.5274L170.052 27.4649L170.938 27L171.823 26.5351L166.604 16.5976L165.719 17.0625ZM170.938 27V26H167.938V27V28H170.938V27ZM167.938 27L168.823 26.5347L163.713 16.8159L162.828 17.2812L161.943 17.7466L167.052 27.4653L167.938 27ZM162.828 17.2812L162.778 16.2825C162.588 16.292 162.386 16.2969 162.172 16.2969V17.2969V18.2969C162.416 18.2969 162.652 18.2913 162.878 18.28L162.828 17.2812ZM162.172 17.2969V16.2969C162.171 16.2969 162.171 16.2969 162.171 16.2969C162.17 16.2969 162.17 16.2969 162.169 16.2969C162.169 16.2969 162.168 16.2969 162.168 16.2969C162.168 16.2969 162.167 16.2969 162.167 16.2969C162.166 16.2969 162.166 16.2969 162.165 16.2969C162.165 16.2969 162.165 16.2969 162.164 16.2969C162.164 16.2969 162.163 16.2969 162.163 16.2969C162.162 16.2969 162.162 16.2969 162.162 16.2969C162.161 16.2969 162.161 16.2969 162.16 16.2969C162.16 16.2969 162.159 16.2969 162.159 16.2969C162.159 16.2969 162.158 16.2969 162.158 16.2969C162.157 16.2969 162.157 16.2969 162.156 16.2969C162.156 16.2969 162.156 16.2969 162.155 16.2969C162.155 16.2969 162.154 16.2969 162.154 16.2969C162.153 16.2969 162.153 16.2969 162.153 16.2969C162.152 16.2969 162.152 16.2969 162.151 16.2969C162.151 16.2969 162.15 16.2969 162.15 16.2969C162.15 16.2969 162.149 16.2969 162.149 16.2969C162.148 16.2969 162.148 16.2969 162.147 16.2969C162.147 16.2969 162.147 16.2969 162.146 16.2969C162.146 16.2969 162.145 16.2969 162.145 16.2969C162.144 16.2969 162.144 16.2969 162.144 16.2969C162.143 16.2969 162.143 16.2969 162.142 16.2969C162.142 16.2969 162.141 16.2969 162.141 16.2969C162.141 16.2969 162.14 16.2969 162.14 16.2969C162.139 16.2969 162.139 16.2969 162.138 16.2969C162.138 16.2969 162.138 16.2969 162.137 16.2969C162.137 16.2969 162.136 16.2969 162.136 16.2969C162.135 16.2969 162.135 16.2969 162.135 16.2969C162.134 16.2969 162.134 16.2969 162.133 16.2969C162.133 16.2969 162.132 16.2969 162.132 16.2969C162.132 16.2969 162.131 16.2969 162.131 16.2969C162.13 16.2969 162.13 16.2969 162.129 16.2969C162.129 16.2969 162.129 16.2969 162.128 16.2969C162.128 16.2969 162.127 16.2969 162.127 16.2969C162.126 16.2969 162.126 16.2969 162.126 16.2969C162.125 16.2969 162.125 16.2969 162.124 16.2969C162.124 16.2969 162.123 16.2969 162.123 16.2969C162.123 16.2969 162.122 16.2969 162.122 16.2969C162.121 16.2969 162.121 16.2969 162.12 16.2969C162.12 16.2969 162.12 16.2969 162.119 16.2969C162.119 16.2969 162.118 16.2969 162.118 16.2969C162.117 16.2969 162.117 16.2969 162.117 16.2969C162.116 16.2969 162.116 16.2969 162.115 16.2969C162.115 16.2969 162.114 16.2969 162.114 16.2969C162.114 16.2969 162.113 16.2969 162.113 16.2969C162.112 16.2969 162.112 16.2969 162.111 16.2969C162.111 16.2969 162.111 16.2969 162.11 16.2969C162.11 16.2969 162.109 16.2969 162.109 16.2969C162.108 16.2969 162.108 16.2969 162.107 16.2969C162.107 16.2969 162.107 16.2969 162.106 16.2969C162.106 16.2969 162.105 16.2969 162.105 16.2969C162.104 16.2969 162.104 16.2969 162.104 16.2969C162.103 16.2969 162.103 16.2969 162.102 16.2969C162.102 16.2969 162.101 16.2969 162.101 16.2969C162.101 16.2969 162.1 16.2969 162.1 16.2969C162.099 16.2969 162.099 16.2969 162.098 16.2969C162.098 16.2969 162.098 16.2969 162.097 16.2969C162.097 16.2969 162.096 16.2969 162.096 16.2969C162.095 16.2969 162.095 16.2969 162.095 16.2969C162.094 16.2969 162.094 16.2969 162.093 16.2969C162.093 16.2969 162.092 16.2969 162.092 16.2969C162.092 16.2969 162.091 16.2969 162.091 16.2969C162.09 16.2969 162.09 16.2969 162.089 16.2969C162.089 16.2969 162.088 16.2969 162.088 16.2969C162.088 16.2969 162.087 16.2969 162.087 16.2969C162.086 16.2969 162.086 16.2969 162.085 16.2969C162.085 16.2969 162.085 16.2969 162.084 16.2969C162.084 16.2969 162.083 16.2969 162.083 16.2969C162.082 16.2969 162.082 16.2969 162.082 16.2969C162.081 16.2969 162.081 16.2969 162.08 16.2969C162.08 16.2969 162.079 16.2969 162.079 16.2969C162.079 16.2969 162.078 16.2969 162.078 16.2969C162.077 16.2969 162.077 16.2969 162.076 16.2969C162.076 16.2969 162.076 16.2969 162.075 16.2969C162.075 16.2969 162.074 16.2969 162.074 16.2969C162.073 16.2969 162.073 16.2969 162.072 16.2969C162.072 16.2969 162.072 16.2969 162.071 16.2969C162.071 16.2969 162.07 16.2969 162.07 16.2969C162.069 16.2969 162.069 16.2969 162.069 16.2969C162.068 16.2969 162.068 16.2969 162.067 16.2969C162.067 16.2969 162.066 16.2969 162.066 16.2969C162.066 16.2969 162.065 16.2969 162.065 16.2969C162.064 16.2969 162.064 16.2969 162.063 16.2969C162.063 16.2969 162.062 16.2969 162.062 16.2969C162.062 16.2969 162.061 16.2969 162.061 16.2969C162.06 16.2969 162.06 16.2969 162.059 16.2969C162.059 16.2969 162.059 16.2969 162.058 16.2969C162.058 16.2969 162.057 16.2969 162.057 16.2969C162.056 16.2969 162.056 16.2969 162.056 16.2969C162.055 16.2969 162.055 16.2969 162.054 16.2969C162.054 16.2969 162.053 16.2969 162.053 16.2969C162.053 16.2969 162.052 16.2969 162.052 16.2969C162.051 16.2969 162.051 16.2969 162.05 16.2969C162.05 16.2969 162.049 16.2969 162.049 16.2969C162.049 16.2969 162.048 16.2969 162.048 16.2969C162.047 16.2969 162.047 16.2969 162.046 16.2969C162.046 16.2969 162.046 16.2969 162.045 16.2969C162.045 16.2969 162.044 16.2969 162.044 16.2969C162.043 16.2969 162.043 16.2969 162.043 16.2969C162.042 16.2969 162.042 16.2969 162.041 16.2969C162.041 16.2969 162.04 16.2969 162.04 16.2969C162.039 16.2969 162.039 16.2969 162.039 16.2969C162.038 16.2969 162.038 16.2969 162.037 16.2969C162.037 16.2969 162.036 16.2969 162.036 16.2969C162.036 16.2969 162.035 16.2969 162.035 16.2969C162.034 16.2969 162.034 16.2969 162.033 16.2969C162.033 16.2969 162.033 16.2969 162.032 16.2969C162.032 16.2969 162.031 16.2969 162.031 16.2969C162.03 16.2969 162.03 16.2969 162.029 16.2969C162.029 16.2969 162.029 16.2969 162.028 16.2969C162.028 16.2969 162.027 16.2969 162.027 16.2969C162.026 16.2969 162.026 16.2969 162.026 16.2969C162.025 16.2969 162.025 16.2969 162.024 16.2969C162.024 16.2969 162.023 16.2969 162.023 16.2969C162.022 16.2969 162.022 16.2969 162.022 16.2969C162.021 16.2969 162.021 16.2969 162.02 16.2969C162.02 16.2969 162.019 16.2969 162.019 16.2969C162.019 16.2969 162.018 16.2969 162.018 16.2969C162.017 16.2969 162.017 16.2969 162.016 16.2969C162.016 16.2969 162.015 16.2969 162.015 16.2969C162.015 16.2969 162.014 16.2969 162.014 16.2969C162.013 16.2969 162.013 16.2969 162.012 16.2969C162.012 16.2969 162.012 16.2969 162.011 16.2969C162.011 16.2969 162.01 16.2969 162.01 16.2969C162.009 16.2969 162.009 16.2969 162.008 16.2969C162.008 16.2969 162.008 16.2969 162.007 16.2969C162.007 16.2969 162.006 16.2969 162.006 16.2969C162.005 16.2969 162.005 16.2969 162.005 16.2969C162.004 16.2969 162.004 16.2969 162.003 16.2969C162.003 16.2969 162.002 16.2969 162.002 16.2969C162.001 16.2969 162.001 16.2969 162.001 16.2969C162 16.2969 162 16.2969 161.999 16.2969C161.999 16.2969 161.998 16.2969 161.998 16.2969C161.998 16.2969 161.997 16.2969 161.997 16.2969C161.996 16.2969 161.996 16.2969 161.995 16.2969C161.995 16.2969 161.994 16.2969 161.994 16.2969C161.994 16.2969 161.993 16.2969 161.993 16.2969C161.992 16.2969 161.992 16.2969 161.991 16.2969C161.991 16.2969 161.991 16.2969 161.99 16.2969C161.99 16.2969 161.989 16.2969 161.989 16.2969C161.988 16.2969 161.988 16.2969 161.987 16.2969C161.987 16.2969 161.987 16.2969 161.986 16.2969C161.986 16.2969 161.985 16.2969 161.985 16.2969C161.984 16.2969 161.984 16.2969 161.984 16.2969C161.983 16.2969 161.983 16.2969 161.982 16.2969C161.982 16.2969 161.981 16.2969 161.981 16.2969C161.98 16.2969 161.98 16.2969 161.98 16.2969C161.979 16.2969 161.979 16.2969 161.978 16.2969C161.978 16.2969 161.977 16.2969 161.977 16.2969C161.977 16.2969 161.976 16.2969 161.976 16.2969C161.975 16.2969 161.975 16.2969 161.974 16.2969C161.974 16.2969 161.973 16.2969 161.973 16.2969C161.973 16.2969 161.972 16.2969 161.972 16.2969C161.971 16.2969 161.971 16.2969 161.97 16.2969C161.97 16.2969 161.969 16.2969 161.969 16.2969C161.969 16.2969 161.968 16.2969 161.968 16.2969C161.967 16.2969 161.967 16.2969 161.966 16.2969C161.966 16.2969 161.965 16.2969 161.965 16.2969C161.965 16.2969 161.964 16.2969 161.964 16.2969C161.963 16.2969 161.963 16.2969 161.962 16.2969C161.962 16.2969 161.962 16.2969 161.961 16.2969C161.961 16.2969 161.96 16.2969 161.96 16.2969C161.959 16.2969 161.959 16.2969 161.958 16.2969C161.958 16.2969 161.958 16.2969 161.957 16.2969C161.957 16.2969 161.956 16.2969 161.956 16.2969C161.955 16.2969 161.955 16.2969 161.954 16.2969C161.954 16.2969 161.954 16.2969 161.953 16.2969C161.953 16.2969 161.952 16.2969 161.952 16.2969C161.951 16.2969 161.951 16.2969 161.951 16.2969C161.95 16.2969 161.95 16.2969 161.949 16.2969C161.949 16.2969 161.948 16.2969 161.948 16.2969C161.947 16.2969 161.947 16.2969 161.947 16.2969C161.946 16.2969 161.946 16.2969 161.945 16.2969C161.945 16.2969 161.944 16.2969 161.944 16.2969C161.943 16.2969 161.943 16.2969 161.943 16.2969C161.942 16.2969 161.942 16.2969 161.941 16.2969C161.941 16.2969 161.94 16.2969 161.94 16.2969C161.94 16.2969 161.939 16.2969 161.939 16.2969C161.938 16.2969 161.938 16.2969 161.937 16.2969C161.937 16.2969 161.936 16.2969 161.936 16.2969C161.936 16.2969 161.935 16.2969 161.935 16.2969C161.934 16.2969 161.934 16.2969 161.933 16.2969C161.933 16.2969 161.932 16.2969 161.932 16.2969C161.932 16.2969 161.931 16.2969 161.931 16.2969C161.93 16.2969 161.93 16.2969 161.929 16.2969C161.929 16.2969 161.928 16.2969 161.928 16.2969C161.928 16.2969 161.927 16.2969 161.927 16.2969C161.926 16.2969 161.926 16.2969 161.925 16.2969C161.925 16.2969 161.924 16.2969 161.924 16.2969C161.924 16.2969 161.923 16.2969 161.923 16.2969C161.922 16.2969 161.922 16.2969 161.921 16.2969C161.921 16.2969 161.921 16.2969 161.92 16.2969C161.92 16.2969 161.919 16.2969 161.919 16.2969C161.918 16.2969 161.918 16.2969 161.917 16.2969C161.917 16.2969 161.917 16.2969 161.916 16.2969C161.916 16.2969 161.915 16.2969 161.915 16.2969C161.914 16.2969 161.914 16.2969 161.913 16.2969C161.913 16.2969 161.913 16.2969 161.912 16.2969C161.912 16.2969 161.911 16.2969 161.911 16.2969C161.91 16.2969 161.91 16.2969 161.909 16.2969C161.909 16.2969 161.909 16.2969 161.908 16.2969C161.908 16.2969 161.907 16.2969 161.907 16.2969C161.906 16.2969 161.906 16.2969 161.905 16.2969C161.905 16.2969 161.905 16.2969 161.904 16.2969C161.904 16.2969 161.903 16.2969 161.903 16.2969C161.902 16.2969 161.902 16.2969 161.901 16.2969C161.901 16.2969 161.901 16.2969 161.9 16.2969C161.9 16.2969 161.899 16.2969 161.899 16.2969C161.898 16.2969 161.898 16.2969 161.897 16.2969C161.897 16.2969 161.897 16.2969 161.896 16.2969C161.896 16.2969 161.895 16.2969 161.895 16.2969C161.894 16.2969 161.894 16.2969 161.893 16.2969C161.893 16.2969 161.893 16.2969 161.892 16.2969C161.892 16.2969 161.891 16.2969 161.891 16.2969C161.89 16.2969 161.89 16.2969 161.889 16.2969C161.889 16.2969 161.889 16.2969 161.888 16.2969C161.888 16.2969 161.887 16.2969 161.887 16.2969C161.886 16.2969 161.886 16.2969 161.885 16.2969C161.885 16.2969 161.885 16.2969 161.884 16.2969C161.884 16.2969 161.883 16.2969 161.883 16.2969C161.882 16.2969 161.882 16.2969 161.881 16.2969C161.881 16.2969 161.881 16.2969 161.88 16.2969C161.88 16.2969 161.879 16.2969 161.879 16.2969C161.878 16.2969 161.878 16.2969 161.877 16.2969C161.877 16.2969 161.877 16.2969 161.876 16.2969C161.876 16.2969 161.875 16.2969 161.875 16.2969C161.874 16.2969 161.874 16.2969 161.873 16.2969C161.873 16.2969 161.873 16.2969 161.872 16.2969C161.872 16.2969 161.871 16.2969 161.871 16.2969C161.87 16.2969 161.87 16.2969 161.869 16.2969C161.869 16.2969 161.869 16.2969 161.868 16.2969C161.868 16.2969 161.867 16.2969 161.867 16.2969C161.866 16.2969 161.866 16.2969 161.865 16.2969C161.865 16.2969 161.865 16.2969 161.864 16.2969C161.864 16.2969 161.863 16.2969 161.863 16.2969C161.862 16.2969 161.862 16.2969 161.861 16.2969C161.861 16.2969 161.861 16.2969 161.86 16.2969C161.86 16.2969 161.859 16.2969 161.859 16.2969C161.858 16.2969 161.858 16.2969 161.857 16.2969C161.857 16.2969 161.857 16.2969 161.856 16.2969C161.856 16.2969 161.855 16.2969 161.855 16.2969C161.854 16.2969 161.854 16.2969 161.853 16.2969C161.853 16.2969 161.852 16.2969 161.852 16.2969C161.852 16.2969 161.851 16.2969 161.851 16.2969C161.85 16.2969 161.85 16.2969 161.849 16.2969C161.849 16.2969 161.848 16.2969 161.848 16.2969C161.848 16.2969 161.847 16.2969 161.847 16.2969C161.846 16.2969 161.846 16.2969 161.845 16.2969C161.845 16.2969 161.844 16.2969 161.844 16.2969C161.844 16.2969 161.843 16.2969 161.843 16.2969C161.842 16.2969 161.842 16.2969 161.841 16.2969C161.841 16.2969 161.84 16.2969 161.84 16.2969C161.84 16.2969 161.839 16.2969 161.839 16.2969C161.838 16.2969 161.838 16.2969 161.837 16.2969C161.837 16.2969 161.836 16.2969 161.836 16.2969C161.835 16.2969 161.835 16.2969 161.835 16.2969C161.834 16.2969 161.834 16.2969 161.833 16.2969C161.833 16.2969 161.832 16.2969 161.832 16.2969C161.831 16.2969 161.831 16.2969 161.831 16.2969C161.83 16.2969 161.83 16.2969 161.829 16.2969C161.829 16.2969 161.828 16.2969 161.828 16.2969C161.827 16.2969 161.827 16.2969 161.827 16.2969C161.826 16.2969 161.826 16.2969 161.825 16.2969C161.825 16.2969 161.824 16.2969 161.824 16.2969C161.823 16.2969 161.823 16.2969 161.822 16.2969C161.822 16.2969 161.822 16.2969 161.821 16.2969C161.821 16.2969 161.82 16.2969 161.82 16.2969C161.819 16.2969 161.819 16.2969 161.818 16.2969C161.818 16.2969 161.818 16.2969 161.817 16.2969C161.817 16.2969 161.816 16.2969 161.816 16.2969C161.815 16.2969 161.815 16.2969 161.814 16.2969C161.814 16.2969 161.814 16.2969 161.813 16.2969C161.813 16.2969 161.812 16.2969 161.812 16.2969C161.811 16.2969 161.811 16.2969 161.81 16.2969C161.81 16.2969 161.809 16.2969 161.809 16.2969C161.809 16.2969 161.808 16.2969 161.808 16.2969C161.807 16.2969 161.807 16.2969 161.806 16.2969C161.806 16.2969 161.805 16.2969 161.805 16.2969C161.805 16.2969 161.804 16.2969 161.804 16.2969C161.803 16.2969 161.803 16.2969 161.802 16.2969C161.802 16.2969 161.801 16.2969 161.801 16.2969C161.8 16.2969 161.8 16.2969 161.8 16.2969C161.799 16.2969 161.799 16.2969 161.798 16.2969C161.798 16.2969 161.797 16.2969 161.797 16.2969C161.796 16.2969 161.796 16.2969 161.796 16.2969C161.795 16.2969 161.795 16.2969 161.794 16.2969C161.794 16.2969 161.793 16.2969 161.793 16.2969C161.792 16.2969 161.792 16.2969 161.792 16.2969C161.791 16.2969 161.791 16.2969 161.79 16.2969C161.79 16.2969 161.789 16.2969 161.789 16.2969C161.788 16.2969 161.788 16.2969 161.787 16.2969C161.787 16.2969 161.787 16.2969 161.786 16.2969C161.786 16.2969 161.785 16.2969 161.785 16.2969C161.784 16.2969 161.784 16.2969 161.783 16.2969C161.783 16.2969 161.782 16.2969 161.782 16.2969C161.782 16.2969 161.781 16.2969 161.781 16.2969C161.78 16.2969 161.78 16.2969 161.779 16.2969C161.779 16.2969 161.778 16.2969 161.778 16.2969C161.778 16.2969 161.777 16.2969 161.777 16.2969C161.776 16.2969 161.776 16.2969 161.775 16.2969C161.775 16.2969 161.774 16.2969 161.774 16.2969C161.773 16.2969 161.773 16.2969 161.773 16.2969C161.772 16.2969 161.772 16.2969 161.771 16.2969C161.771 16.2969 161.77 16.2969 161.77 16.2969C161.769 16.2969 161.769 16.2969 161.768 16.2969C161.768 16.2969 161.768 16.2969 161.767 16.2969C161.767 16.2969 161.766 16.2969 161.766 16.2969C161.765 16.2969 161.765 16.2969 161.764 16.2969C161.764 16.2969 161.764 16.2969 161.763 16.2969C161.763 16.2969 161.762 16.2969 161.762 16.2969C161.761 16.2969 161.761 16.2969 161.76 16.2969C161.76 16.2969 161.759 16.2969 161.759 16.2969C161.759 16.2969 161.758 16.2969 161.758 16.2969C161.757 16.2969 161.757 16.2969 161.756 16.2969C161.756 16.2969 161.755 16.2969 161.755 16.2969C161.754 16.2969 161.754 16.2969 161.754 16.2969C161.753 16.2969 161.753 16.2969 161.752 16.2969C161.752 16.2969 161.751 16.2969 161.751 16.2969C161.75 16.2969 161.75 16.2969 161.75 16.2969C161.749 16.2969 161.749 16.2969 161.748 16.2969C161.748 16.2969 161.747 16.2969 161.747 16.2969C161.746 16.2969 161.746 16.2969 161.745 16.2969C161.745 16.2969 161.745 16.2969 161.744 16.2969C161.744 16.2969 161.743 16.2969 161.743 16.2969C161.742 16.2969 161.742 16.2969 161.741 16.2969C161.741 16.2969 161.74 16.2969 161.74 16.2969C161.74 16.2969 161.739 16.2969 161.739 16.2969C161.738 16.2969 161.738 16.2969 161.737 16.2969C161.737 16.2969 161.736 16.2969 161.736 16.2969C161.735 16.2969 161.735 16.2969 161.735 16.2969C161.734 16.2969 161.734 16.2969 161.733 16.2969C161.733 16.2969 161.732 16.2969 161.732 16.2969C161.731 16.2969 161.731 16.2969 161.73 16.2969C161.73 16.2969 161.73 16.2969 161.729 16.2969C161.729 16.2969 161.728 16.2969 161.728 16.2969C161.727 16.2969 161.727 16.2969 161.726 16.2969C161.726 16.2969 161.725 16.2969 161.725 16.2969C161.725 16.2969 161.724 16.2969 161.724 16.2969C161.723 16.2969 161.723 16.2969 161.722 16.2969C161.722 16.2969 161.721 16.2969 161.721 16.2969C161.72 16.2969 161.72 16.2969 161.72 16.2969C161.719 16.2969 161.719 16.2969 161.718 16.2969C161.718 16.2969 161.717 16.2969 161.717 16.2969C161.716 16.2969 161.716 16.2969 161.715 16.2969C161.715 16.2969 161.715 16.2969 161.714 16.2969C161.714 16.2969 161.713 16.2969 161.713 16.2969C161.712 16.2969 161.712 16.2969 161.711 16.2969C161.711 16.2969 161.71 16.2969 161.71 16.2969C161.71 16.2969 161.709 16.2969 161.709 16.2969C161.708 16.2969 161.708 16.2969 161.707 16.2969C161.707 16.2969 161.706 16.2969 161.706 16.2969C161.705 16.2969 161.705 16.2969 161.705 16.2969C161.704 16.2969 161.704 16.2969 161.703 16.2969C161.703 16.2969 161.702 16.2969 161.702 16.2969C161.701 16.2969 161.701 16.2969 161.7 16.2969C161.7 16.2969 161.7 16.2969 161.699 16.2969C161.699 16.2969 161.698 16.2969 161.698 16.2969C161.697 16.2969 161.697 16.2969 161.696 16.2969C161.696 16.2969 161.695 16.2969 161.695 16.2969C161.695 16.2969 161.694 16.2969 161.694 16.2969C161.693 16.2969 161.693 16.2969 161.692 16.2969C161.692 16.2969 161.691 16.2969 161.691 16.2969C161.69 16.2969 161.69 16.2969 161.69 16.2969C161.689 16.2969 161.689 16.2969 161.688 16.2969C161.688 16.2969 161.687 16.2969 161.687 16.2969C161.686 16.2969 161.686 16.2969 161.685 16.2969C161.685 16.2969 161.685 16.2969 161.684 16.2969C161.684 16.2969 161.683 16.2969 161.683 16.2969C161.682 16.2969 161.682 16.2969 161.681 16.2969C161.681 16.2969 161.68 16.2969 161.68 16.2969C161.679 16.2969 161.679 16.2969 161.679 16.2969C161.678 16.2969 161.678 16.2969 161.677 16.2969C161.677 16.2969 161.676 16.2969 161.676 16.2969C161.675 16.2969 161.675 16.2969 161.674 16.2969C161.674 16.2969 161.674 16.2969 161.673 16.2969C161.673 16.2969 161.672 16.2969 161.672 16.2969C161.671 16.2969 161.671 16.2969 161.67 16.2969C161.67 16.2969 161.669 16.2969 161.669 16.2969C161.669 16.2969 161.668 16.2969 161.668 16.2969C161.667 16.2969 161.667 16.2969 161.666 16.2969C161.666 16.2969 161.665 16.2969 161.665 16.2969C161.664 16.2969 161.664 16.2969 161.663 16.2969C161.663 16.2969 161.663 16.2969 161.662 16.2969C161.662 16.2969 161.661 16.2969 161.661 16.2969C161.66 16.2969 161.66 16.2969 161.659 16.2969C161.659 16.2969 161.658 16.2969 161.658 16.2969C161.658 16.2969 161.657 16.2969 161.657 16.2969C161.656 16.2969 161.656 16.2969 161.655 16.2969C161.655 16.2969 161.654 16.2969 161.654 16.2969C161.653 16.2969 161.653 16.2969 161.652 16.2969C161.652 16.2969 161.652 16.2969 161.651 16.2969C161.651 16.2969 161.65 16.2969 161.65 16.2969C161.649 16.2969 161.649 16.2969 161.648 16.2969C161.648 16.2969 161.647 16.2969 161.647 16.2969C161.647 16.2969 161.646 16.2969 161.646 16.2969C161.645 16.2969 161.645 16.2969 161.644 16.2969C161.644 16.2969 161.643 16.2969 161.643 16.2969C161.642 16.2969 161.642 16.2969 161.641 16.2969C161.641 16.2969 161.641 16.2969 161.64 16.2969C161.64 16.2969 161.639 16.2969 161.639 16.2969C161.638 16.2969 161.638 16.2969 161.637 16.2969C161.637 16.2969 161.636 16.2969 161.636 16.2969C161.636 16.2969 161.635 16.2969 161.635 16.2969C161.634 16.2969 161.634 16.2969 161.633 16.2969C161.633 16.2969 161.632 16.2969 161.632 16.2969C161.631 16.2969 161.631 16.2969 161.63 16.2969C161.63 16.2969 161.63 16.2969 161.629 16.2969C161.629 16.2969 161.628 16.2969 161.628 16.2969C161.627 16.2969 161.627 16.2969 161.626 16.2969C161.626 16.2969 161.625 16.2969 161.625 16.2969C161.624 16.2969 161.624 16.2969 161.624 16.2969C161.623 16.2969 161.623 16.2969 161.622 16.2969C161.622 16.2969 161.621 16.2969 161.621 16.2969C161.62 16.2969 161.62 16.2969 161.619 16.2969C161.619 16.2969 161.618 16.2969 161.618 16.2969C161.618 16.2969 161.617 16.2969 161.617 16.2969C161.616 16.2969 161.616 16.2969 161.615 16.2969C161.615 16.2969 161.614 16.2969 161.614 16.2969C161.613 16.2969 161.613 16.2969 161.613 16.2969C161.612 16.2969 161.612 16.2969 161.611 16.2969C161.611 16.2969 161.61 16.2969 161.61 16.2969C161.609 16.2969 161.609 16.2969 161.608 16.2969C161.608 16.2969 161.607 16.2969 161.607 16.2969C161.607 16.2969 161.606 16.2969 161.606 16.2969C161.605 16.2969 161.605 16.2969 161.604 16.2969C161.604 16.2969 161.603 16.2969 161.603 16.2969C161.602 16.2969 161.602 16.2969 161.601 16.2969C161.601 16.2969 161.601 16.2969 161.6 16.2969C161.6 16.2969 161.599 16.2969 161.599 16.2969C161.598 16.2969 161.598 16.2969 161.597 16.2969C161.597 16.2969 161.596 16.2969 161.596 16.2969C161.595 16.2969 161.595 16.2969 161.595 16.2969C161.594 16.2969 161.594 16.2969 161.593 16.2969C161.593 16.2969 161.592 16.2969 161.592 16.2969C161.591 16.2969 161.591 16.2969 161.59 16.2969C161.59 16.2969 161.589 16.2969 161.589 16.2969C161.589 16.2969 161.588 16.2969 161.588 16.2969C161.587 16.2969 161.587 16.2969 161.586 16.2969C161.586 16.2969 161.585 16.2969 161.585 16.2969C161.584 16.2969 161.584 16.2969 161.583 16.2969C161.583 16.2969 161.583 16.2969 161.582 16.2969C161.582 16.2969 161.581 16.2969 161.581 16.2969C161.58 16.2969 161.58 16.2969 161.579 16.2969C161.579 16.2969 161.578 16.2969 161.578 16.2969C161.577 16.2969 161.577 16.2969 161.577 16.2969C161.576 16.2969 161.576 16.2969 161.575 16.2969C161.575 16.2969 161.574 16.2969 161.574 16.2969C161.573 16.2969 161.573 16.2969 161.572 16.2969C161.572 16.2969 161.571 16.2969 161.571 16.2969C161.57 16.2969 161.57 16.2969 161.57 16.2969C161.569 16.2969 161.569 16.2969 161.568 16.2969C161.568 16.2969 161.567 16.2969 161.567 16.2969C161.566 16.2969 161.566 16.2969 161.565 16.2969C161.565 16.2969 161.564 16.2969 161.564 16.2969C161.564 16.2969 161.563 16.2969 161.563 16.2969C161.562 16.2969 161.562 16.2969 161.561 16.2969C161.561 16.2969 161.56 16.2969 161.56 16.2969C161.559 16.2969 161.559 16.2969 161.558 16.2969C161.558 16.2969 161.558 16.2969 161.557 16.2969C161.557 16.2969 161.556 16.2969 161.556 16.2969C161.555 16.2969 161.555 16.2969 161.554 16.2969C161.554 16.2969 161.553 16.2969 161.553 16.2969C161.552 16.2969 161.552 16.2969 161.551 16.2969C161.551 16.2969 161.551 16.2969 161.55 16.2969C161.55 16.2969 161.549 16.2969 161.549 16.2969C161.548 16.2969 161.548 16.2969 161.547 16.2969C161.547 16.2969 161.546 16.2969 161.546 16.2969C161.545 16.2969 161.545 16.2969 161.545 16.2969C161.544 16.2969 161.544 16.2969 161.543 16.2969C161.543 16.2969 161.542 16.2969 161.542 16.2969C161.541 16.2969 161.541 16.2969 161.54 16.2969C161.54 16.2969 161.539 16.2969 161.539 16.2969C161.538 16.2969 161.538 16.2969 161.538 16.2969C161.537 16.2969 161.537 16.2969 161.536 16.2969C161.536 16.2969 161.535 16.2969 161.535 16.2969C161.534 16.2969 161.534 16.2969 161.533 16.2969C161.533 16.2969 161.532 16.2969 161.532 16.2969C161.531 16.2969 161.531 16.2969 161.531 16.2969C161.53 16.2969 161.53 16.2969 161.529 16.2969C161.529 16.2969 161.528 16.2969 161.528 16.2969C161.527 16.2969 161.527 16.2969 161.526 16.2969C161.526 16.2969 161.525 16.2969 161.525 16.2969C161.525 16.2969 161.524 16.2969 161.524 16.2969C161.523 16.2969 161.523 16.2969 161.522 16.2969C161.522 16.2969 161.521 16.2969 161.521 16.2969C161.52 16.2969 161.52 16.2969 161.519 16.2969C161.519 16.2969 161.518 16.2969 161.518 16.2969C161.518 16.2969 161.517 16.2969 161.517 16.2969C161.516 16.2969 161.516 16.2969 161.515 16.2969C161.515 16.2969 161.514 16.2969 161.514 16.2969C161.513 16.2969 161.513 16.2969 161.512 16.2969C161.512 16.2969 161.511 16.2969 161.511 16.2969C161.511 16.2969 161.51 16.2969 161.51 16.2969C161.509 16.2969 161.509 16.2969 161.508 16.2969C161.508 16.2969 161.507 16.2969 161.507 16.2969C161.506 16.2969 161.506 16.2969 161.505 16.2969C161.505 16.2969 161.504 16.2969 161.504 16.2969C161.504 16.2969 161.503 16.2969 161.503 16.2969C161.502 16.2969 161.502 16.2969 161.501 16.2969C161.501 16.2969 161.5 16.2969 161.5 16.2969C161.499 16.2969 161.499 16.2969 161.498 16.2969C161.498 16.2969 161.497 16.2969 161.497 16.2969C161.497 16.2969 161.496 16.2969 161.496 16.2969C161.495 16.2969 161.495 16.2969 161.494 16.2969C161.494 16.2969 161.493 16.2969 161.493 16.2969C161.492 16.2969 161.492 16.2969 161.491 16.2969C161.491 16.2969 161.49 16.2969 161.49 16.2969C161.49 16.2969 161.489 16.2969 161.489 16.2969C161.488 16.2969 161.488 16.2969 161.487 16.2969C161.487 16.2969 161.486 16.2969 161.486 16.2969C161.485 16.2969 161.485 16.2969 161.484 16.2969V17.2969V18.2969C161.485 18.2969 161.485 18.2969 161.486 18.2969C161.486 18.2969 161.487 18.2969 161.487 18.2969C161.488 18.2969 161.488 18.2969 161.489 18.2969C161.489 18.2969 161.49 18.2969 161.49 18.2969C161.49 18.2969 161.491 18.2969 161.491 18.2969C161.492 18.2969 161.492 18.2969 161.493 18.2969C161.493 18.2969 161.494 18.2969 161.494 18.2969C161.495 18.2969 161.495 18.2969 161.496 18.2969C161.496 18.2969 161.497 18.2969 161.497 18.2969C161.497 18.2969 161.498 18.2969 161.498 18.2969C161.499 18.2969 161.499 18.2969 161.5 18.2969C161.5 18.2969 161.501 18.2969 161.501 18.2969C161.502 18.2969 161.502 18.2969 161.503 18.2969C161.503 18.2969 161.504 18.2969 161.504 18.2969C161.504 18.2969 161.505 18.2969 161.505 18.2969C161.506 18.2969 161.506 18.2969 161.507 18.2969C161.507 18.2969 161.508 18.2969 161.508 18.2969C161.509 18.2969 161.509 18.2969 161.51 18.2969C161.51 18.2969 161.511 18.2969 161.511 18.2969C161.511 18.2969 161.512 18.2969 161.512 18.2969C161.513 18.2969 161.513 18.2969 161.514 18.2969C161.514 18.2969 161.515 18.2969 161.515 18.2969C161.516 18.2969 161.516 18.2969 161.517 18.2969C161.517 18.2969 161.518 18.2969 161.518 18.2969C161.518 18.2969 161.519 18.2969 161.519 18.2969C161.52 18.2969 161.52 18.2969 161.521 18.2969C161.521 18.2969 161.522 18.2969 161.522 18.2969C161.523 18.2969 161.523 18.2969 161.524 18.2969C161.524 18.2969 161.525 18.2969 161.525 18.2969C161.525 18.2969 161.526 18.2969 161.526 18.2969C161.527 18.2969 161.527 18.2969 161.528 18.2969C161.528 18.2969 161.529 18.2969 161.529 18.2969C161.53 18.2969 161.53 18.2969 161.531 18.2969C161.531 18.2969 161.531 18.2969 161.532 18.2969C161.532 18.2969 161.533 18.2969 161.533 18.2969C161.534 18.2969 161.534 18.2969 161.535 18.2969C161.535 18.2969 161.536 18.2969 161.536 18.2969C161.537 18.2969 161.537 18.2969 161.538 18.2969C161.538 18.2969 161.538 18.2969 161.539 18.2969C161.539 18.2969 161.54 18.2969 161.54 18.2969C161.541 18.2969 161.541 18.2969 161.542 18.2969C161.542 18.2969 161.543 18.2969 161.543 18.2969C161.544 18.2969 161.544 18.2969 161.545 18.2969C161.545 18.2969 161.545 18.2969 161.546 18.2969C161.546 18.2969 161.547 18.2969 161.547 18.2969C161.548 18.2969 161.548 18.2969 161.549 18.2969C161.549 18.2969 161.55 18.2969 161.55 18.2969C161.551 18.2969 161.551 18.2969 161.551 18.2969C161.552 18.2969 161.552 18.2969 161.553 18.2969C161.553 18.2969 161.554 18.2969 161.554 18.2969C161.555 18.2969 161.555 18.2969 161.556 18.2969C161.556 18.2969 161.557 18.2969 161.557 18.2969C161.558 18.2969 161.558 18.2969 161.558 18.2969C161.559 18.2969 161.559 18.2969 161.56 18.2969C161.56 18.2969 161.561 18.2969 161.561 18.2969C161.562 18.2969 161.562 18.2969 161.563 18.2969C161.563 18.2969 161.564 18.2969 161.564 18.2969C161.564 18.2969 161.565 18.2969 161.565 18.2969C161.566 18.2969 161.566 18.2969 161.567 18.2969C161.567 18.2969 161.568 18.2969 161.568 18.2969C161.569 18.2969 161.569 18.2969 161.57 18.2969C161.57 18.2969 161.57 18.2969 161.571 18.2969C161.571 18.2969 161.572 18.2969 161.572 18.2969C161.573 18.2969 161.573 18.2969 161.574 18.2969C161.574 18.2969 161.575 18.2969 161.575 18.2969C161.576 18.2969 161.576 18.2969 161.577 18.2969C161.577 18.2969 161.577 18.2969 161.578 18.2969C161.578 18.2969 161.579 18.2969 161.579 18.2969C161.58 18.2969 161.58 18.2969 161.581 18.2969C161.581 18.2969 161.582 18.2969 161.582 18.2969C161.583 18.2969 161.583 18.2969 161.583 18.2969C161.584 18.2969 161.584 18.2969 161.585 18.2969C161.585 18.2969 161.586 18.2969 161.586 18.2969C161.587 18.2969 161.587 18.2969 161.588 18.2969C161.588 18.2969 161.589 18.2969 161.589 18.2969C161.589 18.2969 161.59 18.2969 161.59 18.2969C161.591 18.2969 161.591 18.2969 161.592 18.2969C161.592 18.2969 161.593 18.2969 161.593 18.2969C161.594 18.2969 161.594 18.2969 161.595 18.2969C161.595 18.2969 161.595 18.2969 161.596 18.2969C161.596 18.2969 161.597 18.2969 161.597 18.2969C161.598 18.2969 161.598 18.2969 161.599 18.2969C161.599 18.2969 161.6 18.2969 161.6 18.2969C161.601 18.2969 161.601 18.2969 161.601 18.2969C161.602 18.2969 161.602 18.2969 161.603 18.2969C161.603 18.2969 161.604 18.2969 161.604 18.2969C161.605 18.2969 161.605 18.2969 161.606 18.2969C161.606 18.2969 161.607 18.2969 161.607 18.2969C161.607 18.2969 161.608 18.2969 161.608 18.2969C161.609 18.2969 161.609 18.2969 161.61 18.2969C161.61 18.2969 161.611 18.2969 161.611 18.2969C161.612 18.2969 161.612 18.2969 161.613 18.2969C161.613 18.2969 161.613 18.2969 161.614 18.2969C161.614 18.2969 161.615 18.2969 161.615 18.2969C161.616 18.2969 161.616 18.2969 161.617 18.2969C161.617 18.2969 161.618 18.2969 161.618 18.2969C161.618 18.2969 161.619 18.2969 161.619 18.2969C161.62 18.2969 161.62 18.2969 161.621 18.2969C161.621 18.2969 161.622 18.2969 161.622 18.2969C161.623 18.2969 161.623 18.2969 161.624 18.2969C161.624 18.2969 161.624 18.2969 161.625 18.2969C161.625 18.2969 161.626 18.2969 161.626 18.2969C161.627 18.2969 161.627 18.2969 161.628 18.2969C161.628 18.2969 161.629 18.2969 161.629 18.2969C161.63 18.2969 161.63 18.2969 161.63 18.2969C161.631 18.2969 161.631 18.2969 161.632 18.2969C161.632 18.2969 161.633 18.2969 161.633 18.2969C161.634 18.2969 161.634 18.2969 161.635 18.2969C161.635 18.2969 161.636 18.2969 161.636 18.2969C161.636 18.2969 161.637 18.2969 161.637 18.2969C161.638 18.2969 161.638 18.2969 161.639 18.2969C161.639 18.2969 161.64 18.2969 161.64 18.2969C161.641 18.2969 161.641 18.2969 161.641 18.2969C161.642 18.2969 161.642 18.2969 161.643 18.2969C161.643 18.2969 161.644 18.2969 161.644 18.2969C161.645 18.2969 161.645 18.2969 161.646 18.2969C161.646 18.2969 161.647 18.2969 161.647 18.2969C161.647 18.2969 161.648 18.2969 161.648 18.2969C161.649 18.2969 161.649 18.2969 161.65 18.2969C161.65 18.2969 161.651 18.2969 161.651 18.2969C161.652 18.2969 161.652 18.2969 161.652 18.2969C161.653 18.2969 161.653 18.2969 161.654 18.2969C161.654 18.2969 161.655 18.2969 161.655 18.2969C161.656 18.2969 161.656 18.2969 161.657 18.2969C161.657 18.2969 161.658 18.2969 161.658 18.2969C161.658 18.2969 161.659 18.2969 161.659 18.2969C161.66 18.2969 161.66 18.2969 161.661 18.2969C161.661 18.2969 161.662 18.2969 161.662 18.2969C161.663 18.2969 161.663 18.2969 161.663 18.2969C161.664 18.2969 161.664 18.2969 161.665 18.2969C161.665 18.2969 161.666 18.2969 161.666 18.2969C161.667 18.2969 161.667 18.2969 161.668 18.2969C161.668 18.2969 161.669 18.2969 161.669 18.2969C161.669 18.2969 161.67 18.2969 161.67 18.2969C161.671 18.2969 161.671 18.2969 161.672 18.2969C161.672 18.2969 161.673 18.2969 161.673 18.2969C161.674 18.2969 161.674 18.2969 161.674 18.2969C161.675 18.2969 161.675 18.2969 161.676 18.2969C161.676 18.2969 161.677 18.2969 161.677 18.2969C161.678 18.2969 161.678 18.2969 161.679 18.2969C161.679 18.2969 161.679 18.2969 161.68 18.2969C161.68 18.2969 161.681 18.2969 161.681 18.2969C161.682 18.2969 161.682 18.2969 161.683 18.2969C161.683 18.2969 161.684 18.2969 161.684 18.2969C161.685 18.2969 161.685 18.2969 161.685 18.2969C161.686 18.2969 161.686 18.2969 161.687 18.2969C161.687 18.2969 161.688 18.2969 161.688 18.2969C161.689 18.2969 161.689 18.2969 161.69 18.2969C161.69 18.2969 161.69 18.2969 161.691 18.2969C161.691 18.2969 161.692 18.2969 161.692 18.2969C161.693 18.2969 161.693 18.2969 161.694 18.2969C161.694 18.2969 161.695 18.2969 161.695 18.2969C161.695 18.2969 161.696 18.2969 161.696 18.2969C161.697 18.2969 161.697 18.2969 161.698 18.2969C161.698 18.2969 161.699 18.2969 161.699 18.2969C161.7 18.2969 161.7 18.2969 161.7 18.2969C161.701 18.2969 161.701 18.2969 161.702 18.2969C161.702 18.2969 161.703 18.2969 161.703 18.2969C161.704 18.2969 161.704 18.2969 161.705 18.2969C161.705 18.2969 161.705 18.2969 161.706 18.2969C161.706 18.2969 161.707 18.2969 161.707 18.2969C161.708 18.2969 161.708 18.2969 161.709 18.2969C161.709 18.2969 161.71 18.2969 161.71 18.2969C161.71 18.2969 161.711 18.2969 161.711 18.2969C161.712 18.2969 161.712 18.2969 161.713 18.2969C161.713 18.2969 161.714 18.2969 161.714 18.2969C161.715 18.2969 161.715 18.2969 161.715 18.2969C161.716 18.2969 161.716 18.2969 161.717 18.2969C161.717 18.2969 161.718 18.2969 161.718 18.2969C161.719 18.2969 161.719 18.2969 161.72 18.2969C161.72 18.2969 161.72 18.2969 161.721 18.2969C161.721 18.2969 161.722 18.2969 161.722 18.2969C161.723 18.2969 161.723 18.2969 161.724 18.2969C161.724 18.2969 161.725 18.2969 161.725 18.2969C161.725 18.2969 161.726 18.2969 161.726 18.2969C161.727 18.2969 161.727 18.2969 161.728 18.2969C161.728 18.2969 161.729 18.2969 161.729 18.2969C161.73 18.2969 161.73 18.2969 161.73 18.2969C161.731 18.2969 161.731 18.2969 161.732 18.2969C161.732 18.2969 161.733 18.2969 161.733 18.2969C161.734 18.2969 161.734 18.2969 161.735 18.2969C161.735 18.2969 161.735 18.2969 161.736 18.2969C161.736 18.2969 161.737 18.2969 161.737 18.2969C161.738 18.2969 161.738 18.2969 161.739 18.2969C161.739 18.2969 161.74 18.2969 161.74 18.2969C161.74 18.2969 161.741 18.2969 161.741 18.2969C161.742 18.2969 161.742 18.2969 161.743 18.2969C161.743 18.2969 161.744 18.2969 161.744 18.2969C161.745 18.2969 161.745 18.2969 161.745 18.2969C161.746 18.2969 161.746 18.2969 161.747 18.2969C161.747 18.2969 161.748 18.2969 161.748 18.2969C161.749 18.2969 161.749 18.2969 161.75 18.2969C161.75 18.2969 161.75 18.2969 161.751 18.2969C161.751 18.2969 161.752 18.2969 161.752 18.2969C161.753 18.2969 161.753 18.2969 161.754 18.2969C161.754 18.2969 161.754 18.2969 161.755 18.2969C161.755 18.2969 161.756 18.2969 161.756 18.2969C161.757 18.2969 161.757 18.2969 161.758 18.2969C161.758 18.2969 161.759 18.2969 161.759 18.2969C161.759 18.2969 161.76 18.2969 161.76 18.2969C161.761 18.2969 161.761 18.2969 161.762 18.2969C161.762 18.2969 161.763 18.2969 161.763 18.2969C161.764 18.2969 161.764 18.2969 161.764 18.2969C161.765 18.2969 161.765 18.2969 161.766 18.2969C161.766 18.2969 161.767 18.2969 161.767 18.2969C161.768 18.2969 161.768 18.2969 161.768 18.2969C161.769 18.2969 161.769 18.2969 161.77 18.2969C161.77 18.2969 161.771 18.2969 161.771 18.2969C161.772 18.2969 161.772 18.2969 161.773 18.2969C161.773 18.2969 161.773 18.2969 161.774 18.2969C161.774 18.2969 161.775 18.2969 161.775 18.2969C161.776 18.2969 161.776 18.2969 161.777 18.2969C161.777 18.2969 161.778 18.2969 161.778 18.2969C161.778 18.2969 161.779 18.2969 161.779 18.2969C161.78 18.2969 161.78 18.2969 161.781 18.2969C161.781 18.2969 161.782 18.2969 161.782 18.2969C161.782 18.2969 161.783 18.2969 161.783 18.2969C161.784 18.2969 161.784 18.2969 161.785 18.2969C161.785 18.2969 161.786 18.2969 161.786 18.2969C161.787 18.2969 161.787 18.2969 161.787 18.2969C161.788 18.2969 161.788 18.2969 161.789 18.2969C161.789 18.2969 161.79 18.2969 161.79 18.2969C161.791 18.2969 161.791 18.2969 161.792 18.2969C161.792 18.2969 161.792 18.2969 161.793 18.2969C161.793 18.2969 161.794 18.2969 161.794 18.2969C161.795 18.2969 161.795 18.2969 161.796 18.2969C161.796 18.2969 161.796 18.2969 161.797 18.2969C161.797 18.2969 161.798 18.2969 161.798 18.2969C161.799 18.2969 161.799 18.2969 161.8 18.2969C161.8 18.2969 161.8 18.2969 161.801 18.2969C161.801 18.2969 161.802 18.2969 161.802 18.2969C161.803 18.2969 161.803 18.2969 161.804 18.2969C161.804 18.2969 161.805 18.2969 161.805 18.2969C161.805 18.2969 161.806 18.2969 161.806 18.2969C161.807 18.2969 161.807 18.2969 161.808 18.2969C161.808 18.2969 161.809 18.2969 161.809 18.2969C161.809 18.2969 161.81 18.2969 161.81 18.2969C161.811 18.2969 161.811 18.2969 161.812 18.2969C161.812 18.2969 161.813 18.2969 161.813 18.2969C161.814 18.2969 161.814 18.2969 161.814 18.2969C161.815 18.2969 161.815 18.2969 161.816 18.2969C161.816 18.2969 161.817 18.2969 161.817 18.2969C161.818 18.2969 161.818 18.2969 161.818 18.2969C161.819 18.2969 161.819 18.2969 161.82 18.2969C161.82 18.2969 161.821 18.2969 161.821 18.2969C161.822 18.2969 161.822 18.2969 161.822 18.2969C161.823 18.2969 161.823 18.2969 161.824 18.2969C161.824 18.2969 161.825 18.2969 161.825 18.2969C161.826 18.2969 161.826 18.2969 161.827 18.2969C161.827 18.2969 161.827 18.2969 161.828 18.2969C161.828 18.2969 161.829 18.2969 161.829 18.2969C161.83 18.2969 161.83 18.2969 161.831 18.2969C161.831 18.2969 161.831 18.2969 161.832 18.2969C161.832 18.2969 161.833 18.2969 161.833 18.2969C161.834 18.2969 161.834 18.2969 161.835 18.2969C161.835 18.2969 161.835 18.2969 161.836 18.2969C161.836 18.2969 161.837 18.2969 161.837 18.2969C161.838 18.2969 161.838 18.2969 161.839 18.2969C161.839 18.2969 161.84 18.2969 161.84 18.2969C161.84 18.2969 161.841 18.2969 161.841 18.2969C161.842 18.2969 161.842 18.2969 161.843 18.2969C161.843 18.2969 161.844 18.2969 161.844 18.2969C161.844 18.2969 161.845 18.2969 161.845 18.2969C161.846 18.2969 161.846 18.2969 161.847 18.2969C161.847 18.2969 161.848 18.2969 161.848 18.2969C161.848 18.2969 161.849 18.2969 161.849 18.2969C161.85 18.2969 161.85 18.2969 161.851 18.2969C161.851 18.2969 161.852 18.2969 161.852 18.2969C161.852 18.2969 161.853 18.2969 161.853 18.2969C161.854 18.2969 161.854 18.2969 161.855 18.2969C161.855 18.2969 161.856 18.2969 161.856 18.2969C161.857 18.2969 161.857 18.2969 161.857 18.2969C161.858 18.2969 161.858 18.2969 161.859 18.2969C161.859 18.2969 161.86 18.2969 161.86 18.2969C161.861 18.2969 161.861 18.2969 161.861 18.2969C161.862 18.2969 161.862 18.2969 161.863 18.2969C161.863 18.2969 161.864 18.2969 161.864 18.2969C161.865 18.2969 161.865 18.2969 161.865 18.2969C161.866 18.2969 161.866 18.2969 161.867 18.2969C161.867 18.2969 161.868 18.2969 161.868 18.2969C161.869 18.2969 161.869 18.2969 161.869 18.2969C161.87 18.2969 161.87 18.2969 161.871 18.2969C161.871 18.2969 161.872 18.2969 161.872 18.2969C161.873 18.2969 161.873 18.2969 161.873 18.2969C161.874 18.2969 161.874 18.2969 161.875 18.2969C161.875 18.2969 161.876 18.2969 161.876 18.2969C161.877 18.2969 161.877 18.2969 161.877 18.2969C161.878 18.2969 161.878 18.2969 161.879 18.2969C161.879 18.2969 161.88 18.2969 161.88 18.2969C161.881 18.2969 161.881 18.2969 161.881 18.2969C161.882 18.2969 161.882 18.2969 161.883 18.2969C161.883 18.2969 161.884 18.2969 161.884 18.2969C161.885 18.2969 161.885 18.2969 161.885 18.2969C161.886 18.2969 161.886 18.2969 161.887 18.2969C161.887 18.2969 161.888 18.2969 161.888 18.2969C161.889 18.2969 161.889 18.2969 161.889 18.2969C161.89 18.2969 161.89 18.2969 161.891 18.2969C161.891 18.2969 161.892 18.2969 161.892 18.2969C161.893 18.2969 161.893 18.2969 161.893 18.2969C161.894 18.2969 161.894 18.2969 161.895 18.2969C161.895 18.2969 161.896 18.2969 161.896 18.2969C161.897 18.2969 161.897 18.2969 161.897 18.2969C161.898 18.2969 161.898 18.2969 161.899 18.2969C161.899 18.2969 161.9 18.2969 161.9 18.2969C161.901 18.2969 161.901 18.2969 161.901 18.2969C161.902 18.2969 161.902 18.2969 161.903 18.2969C161.903 18.2969 161.904 18.2969 161.904 18.2969C161.905 18.2969 161.905 18.2969 161.905 18.2969C161.906 18.2969 161.906 18.2969 161.907 18.2969C161.907 18.2969 161.908 18.2969 161.908 18.2969C161.909 18.2969 161.909 18.2969 161.909 18.2969C161.91 18.2969 161.91 18.2969 161.911 18.2969C161.911 18.2969 161.912 18.2969 161.912 18.2969C161.913 18.2969 161.913 18.2969 161.913 18.2969C161.914 18.2969 161.914 18.2969 161.915 18.2969C161.915 18.2969 161.916 18.2969 161.916 18.2969C161.917 18.2969 161.917 18.2969 161.917 18.2969C161.918 18.2969 161.918 18.2969 161.919 18.2969C161.919 18.2969 161.92 18.2969 161.92 18.2969C161.921 18.2969 161.921 18.2969 161.921 18.2969C161.922 18.2969 161.922 18.2969 161.923 18.2969C161.923 18.2969 161.924 18.2969 161.924 18.2969C161.924 18.2969 161.925 18.2969 161.925 18.2969C161.926 18.2969 161.926 18.2969 161.927 18.2969C161.927 18.2969 161.928 18.2969 161.928 18.2969C161.928 18.2969 161.929 18.2969 161.929 18.2969C161.93 18.2969 161.93 18.2969 161.931 18.2969C161.931 18.2969 161.932 18.2969 161.932 18.2969C161.932 18.2969 161.933 18.2969 161.933 18.2969C161.934 18.2969 161.934 18.2969 161.935 18.2969C161.935 18.2969 161.936 18.2969 161.936 18.2969C161.936 18.2969 161.937 18.2969 161.937 18.2969C161.938 18.2969 161.938 18.2969 161.939 18.2969C161.939 18.2969 161.94 18.2969 161.94 18.2969C161.94 18.2969 161.941 18.2969 161.941 18.2969C161.942 18.2969 161.942 18.2969 161.943 18.2969C161.943 18.2969 161.943 18.2969 161.944 18.2969C161.944 18.2969 161.945 18.2969 161.945 18.2969C161.946 18.2969 161.946 18.2969 161.947 18.2969C161.947 18.2969 161.947 18.2969 161.948 18.2969C161.948 18.2969 161.949 18.2969 161.949 18.2969C161.95 18.2969 161.95 18.2969 161.951 18.2969C161.951 18.2969 161.951 18.2969 161.952 18.2969C161.952 18.2969 161.953 18.2969 161.953 18.2969C161.954 18.2969 161.954 18.2969 161.954 18.2969C161.955 18.2969 161.955 18.2969 161.956 18.2969C161.956 18.2969 161.957 18.2969 161.957 18.2969C161.958 18.2969 161.958 18.2969 161.958 18.2969C161.959 18.2969 161.959 18.2969 161.96 18.2969C161.96 18.2969 161.961 18.2969 161.961 18.2969C161.962 18.2969 161.962 18.2969 161.962 18.2969C161.963 18.2969 161.963 18.2969 161.964 18.2969C161.964 18.2969 161.965 18.2969 161.965 18.2969C161.965 18.2969 161.966 18.2969 161.966 18.2969C161.967 18.2969 161.967 18.2969 161.968 18.2969C161.968 18.2969 161.969 18.2969 161.969 18.2969C161.969 18.2969 161.97 18.2969 161.97 18.2969C161.971 18.2969 161.971 18.2969 161.972 18.2969C161.972 18.2969 161.973 18.2969 161.973 18.2969C161.973 18.2969 161.974 18.2969 161.974 18.2969C161.975 18.2969 161.975 18.2969 161.976 18.2969C161.976 18.2969 161.977 18.2969 161.977 18.2969C161.977 18.2969 161.978 18.2969 161.978 18.2969C161.979 18.2969 161.979 18.2969 161.98 18.2969C161.98 18.2969 161.98 18.2969 161.981 18.2969C161.981 18.2969 161.982 18.2969 161.982 18.2969C161.983 18.2969 161.983 18.2969 161.984 18.2969C161.984 18.2969 161.984 18.2969 161.985 18.2969C161.985 18.2969 161.986 18.2969 161.986 18.2969C161.987 18.2969 161.987 18.2969 161.987 18.2969C161.988 18.2969 161.988 18.2969 161.989 18.2969C161.989 18.2969 161.99 18.2969 161.99 18.2969C161.991 18.2969 161.991 18.2969 161.991 18.2969C161.992 18.2969 161.992 18.2969 161.993 18.2969C161.993 18.2969 161.994 18.2969 161.994 18.2969C161.994 18.2969 161.995 18.2969 161.995 18.2969C161.996 18.2969 161.996 18.2969 161.997 18.2969C161.997 18.2969 161.998 18.2969 161.998 18.2969C161.998 18.2969 161.999 18.2969 161.999 18.2969C162 18.2969 162 18.2969 162.001 18.2969C162.001 18.2969 162.001 18.2969 162.002 18.2969C162.002 18.2969 162.003 18.2969 162.003 18.2969C162.004 18.2969 162.004 18.2969 162.005 18.2969C162.005 18.2969 162.005 18.2969 162.006 18.2969C162.006 18.2969 162.007 18.2969 162.007 18.2969C162.008 18.2969 162.008 18.2969 162.008 18.2969C162.009 18.2969 162.009 18.2969 162.01 18.2969C162.01 18.2969 162.011 18.2969 162.011 18.2969C162.012 18.2969 162.012 18.2969 162.012 18.2969C162.013 18.2969 162.013 18.2969 162.014 18.2969C162.014 18.2969 162.015 18.2969 162.015 18.2969C162.015 18.2969 162.016 18.2969 162.016 18.2969C162.017 18.2969 162.017 18.2969 162.018 18.2969C162.018 18.2969 162.019 18.2969 162.019 18.2969C162.019 18.2969 162.02 18.2969 162.02 18.2969C162.021 18.2969 162.021 18.2969 162.022 18.2969C162.022 18.2969 162.022 18.2969 162.023 18.2969C162.023 18.2969 162.024 18.2969 162.024 18.2969C162.025 18.2969 162.025 18.2969 162.026 18.2969C162.026 18.2969 162.026 18.2969 162.027 18.2969C162.027 18.2969 162.028 18.2969 162.028 18.2969C162.029 18.2969 162.029 18.2969 162.029 18.2969C162.03 18.2969 162.03 18.2969 162.031 18.2969C162.031 18.2969 162.032 18.2969 162.032 18.2969C162.033 18.2969 162.033 18.2969 162.033 18.2969C162.034 18.2969 162.034 18.2969 162.035 18.2969C162.035 18.2969 162.036 18.2969 162.036 18.2969C162.036 18.2969 162.037 18.2969 162.037 18.2969C162.038 18.2969 162.038 18.2969 162.039 18.2969C162.039 18.2969 162.039 18.2969 162.04 18.2969C162.04 18.2969 162.041 18.2969 162.041 18.2969C162.042 18.2969 162.042 18.2969 162.043 18.2969C162.043 18.2969 162.043 18.2969 162.044 18.2969C162.044 18.2969 162.045 18.2969 162.045 18.2969C162.046 18.2969 162.046 18.2969 162.046 18.2969C162.047 18.2969 162.047 18.2969 162.048 18.2969C162.048 18.2969 162.049 18.2969 162.049 18.2969C162.049 18.2969 162.05 18.2969 162.05 18.2969C162.051 18.2969 162.051 18.2969 162.052 18.2969C162.052 18.2969 162.053 18.2969 162.053 18.2969C162.053 18.2969 162.054 18.2969 162.054 18.2969C162.055 18.2969 162.055 18.2969 162.056 18.2969C162.056 18.2969 162.056 18.2969 162.057 18.2969C162.057 18.2969 162.058 18.2969 162.058 18.2969C162.059 18.2969 162.059 18.2969 162.059 18.2969C162.06 18.2969 162.06 18.2969 162.061 18.2969C162.061 18.2969 162.062 18.2969 162.062 18.2969C162.062 18.2969 162.063 18.2969 162.063 18.2969C162.064 18.2969 162.064 18.2969 162.065 18.2969C162.065 18.2969 162.066 18.2969 162.066 18.2969C162.066 18.2969 162.067 18.2969 162.067 18.2969C162.068 18.2969 162.068 18.2969 162.069 18.2969C162.069 18.2969 162.069 18.2969 162.07 18.2969C162.07 18.2969 162.071 18.2969 162.071 18.2969C162.072 18.2969 162.072 18.2969 162.072 18.2969C162.073 18.2969 162.073 18.2969 162.074 18.2969C162.074 18.2969 162.075 18.2969 162.075 18.2969C162.076 18.2969 162.076 18.2969 162.076 18.2969C162.077 18.2969 162.077 18.2969 162.078 18.2969C162.078 18.2969 162.079 18.2969 162.079 18.2969C162.079 18.2969 162.08 18.2969 162.08 18.2969C162.081 18.2969 162.081 18.2969 162.082 18.2969C162.082 18.2969 162.082 18.2969 162.083 18.2969C162.083 18.2969 162.084 18.2969 162.084 18.2969C162.085 18.2969 162.085 18.2969 162.085 18.2969C162.086 18.2969 162.086 18.2969 162.087 18.2969C162.087 18.2969 162.088 18.2969 162.088 18.2969C162.088 18.2969 162.089 18.2969 162.089 18.2969C162.09 18.2969 162.09 18.2969 162.091 18.2969C162.091 18.2969 162.092 18.2969 162.092 18.2969C162.092 18.2969 162.093 18.2969 162.093 18.2969C162.094 18.2969 162.094 18.2969 162.095 18.2969C162.095 18.2969 162.095 18.2969 162.096 18.2969C162.096 18.2969 162.097 18.2969 162.097 18.2969C162.098 18.2969 162.098 18.2969 162.098 18.2969C162.099 18.2969 162.099 18.2969 162.1 18.2969C162.1 18.2969 162.101 18.2969 162.101 18.2969C162.101 18.2969 162.102 18.2969 162.102 18.2969C162.103 18.2969 162.103 18.2969 162.104 18.2969C162.104 18.2969 162.104 18.2969 162.105 18.2969C162.105 18.2969 162.106 18.2969 162.106 18.2969C162.107 18.2969 162.107 18.2969 162.107 18.2969C162.108 18.2969 162.108 18.2969 162.109 18.2969C162.109 18.2969 162.11 18.2969 162.11 18.2969C162.111 18.2969 162.111 18.2969 162.111 18.2969C162.112 18.2969 162.112 18.2969 162.113 18.2969C162.113 18.2969 162.114 18.2969 162.114 18.2969C162.114 18.2969 162.115 18.2969 162.115 18.2969C162.116 18.2969 162.116 18.2969 162.117 18.2969C162.117 18.2969 162.117 18.2969 162.118 18.2969C162.118 18.2969 162.119 18.2969 162.119 18.2969C162.12 18.2969 162.12 18.2969 162.12 18.2969C162.121 18.2969 162.121 18.2969 162.122 18.2969C162.122 18.2969 162.123 18.2969 162.123 18.2969C162.123 18.2969 162.124 18.2969 162.124 18.2969C162.125 18.2969 162.125 18.2969 162.126 18.2969C162.126 18.2969 162.126 18.2969 162.127 18.2969C162.127 18.2969 162.128 18.2969 162.128 18.2969C162.129 18.2969 162.129 18.2969 162.129 18.2969C162.13 18.2969 162.13 18.2969 162.131 18.2969C162.131 18.2969 162.132 18.2969 162.132 18.2969C162.132 18.2969 162.133 18.2969 162.133 18.2969C162.134 18.2969 162.134 18.2969 162.135 18.2969C162.135 18.2969 162.135 18.2969 162.136 18.2969C162.136 18.2969 162.137 18.2969 162.137 18.2969C162.138 18.2969 162.138 18.2969 162.138 18.2969C162.139 18.2969 162.139 18.2969 162.14 18.2969C162.14 18.2969 162.141 18.2969 162.141 18.2969C162.141 18.2969 162.142 18.2969 162.142 18.2969C162.143 18.2969 162.143 18.2969 162.144 18.2969C162.144 18.2969 162.144 18.2969 162.145 18.2969C162.145 18.2969 162.146 18.2969 162.146 18.2969C162.147 18.2969 162.147 18.2969 162.147 18.2969C162.148 18.2969 162.148 18.2969 162.149 18.2969C162.149 18.2969 162.15 18.2969 162.15 18.2969C162.15 18.2969 162.151 18.2969 162.151 18.2969C162.152 18.2969 162.152 18.2969 162.153 18.2969C162.153 18.2969 162.153 18.2969 162.154 18.2969C162.154 18.2969 162.155 18.2969 162.155 18.2969C162.156 18.2969 162.156 18.2969 162.156 18.2969C162.157 18.2969 162.157 18.2969 162.158 18.2969C162.158 18.2969 162.159 18.2969 162.159 18.2969C162.159 18.2969 162.16 18.2969 162.16 18.2969C162.161 18.2969 162.161 18.2969 162.162 18.2969C162.162 18.2969 162.162 18.2969 162.163 18.2969C162.163 18.2969 162.164 18.2969 162.164 18.2969C162.165 18.2969 162.165 18.2969 162.165 18.2969C162.166 18.2969 162.166 18.2969 162.167 18.2969C162.167 18.2969 162.168 18.2969 162.168 18.2969C162.168 18.2969 162.169 18.2969 162.169 18.2969C162.17 18.2969 162.17 18.2969 162.171 18.2969C162.171 18.2969 162.171 18.2969 162.172 18.2969V17.2969ZM161.484 17.2969V16.2969H147.75V17.2969V18.2969H161.484V17.2969ZM147.75 17.2969H146.75V27H147.75H148.75V17.2969H147.75ZM147.75 27V26H144.75V27V28H147.75V27ZM144.75 27H145.75V3H144.75H143.75V27H144.75ZM147.75 14.7031V15.7031H161.016V14.7031V13.7031H147.75V14.7031ZM161.016 14.7031V15.7031C162.811 15.7031 164.255 15.6457 165.33 15.525L165.219 14.5312L165.107 13.5375C164.141 13.646 162.782 13.7031 161.016 13.7031V14.7031ZM165.219 14.5312L165.339 15.524C166.415 15.3936 167.348 15.1585 168.018 14.7365L167.484 13.8906L166.951 13.0447C166.662 13.2269 166.085 13.4189 165.098 13.5385L165.219 14.5312ZM167.484 13.8906L168.009 14.7417C168.719 14.3036 169.194 13.658 169.393 12.8476L168.422 12.6094L167.451 12.3712C167.379 12.6649 167.229 12.8735 166.959 13.0396L167.484 13.8906ZM168.422 12.6094L169.393 12.8476C169.555 12.1876 169.625 11.3859 169.625 10.4688H168.625H167.625C167.625 11.3016 167.56 11.9269 167.451 12.3712L168.422 12.6094ZM168.625 10.4688H169.625V9.84375H168.625H167.625V10.4688H168.625ZM168.625 9.84375H169.625C169.625 8.80712 169.529 7.90592 169.294 7.18896L168.344 7.5L167.393 7.81104C167.534 8.23991 167.625 8.90121 167.625 9.84375H168.625ZM168.344 7.5L169.294 7.18896C169.019 6.34707 168.451 5.7176 167.653 5.33337L167.219 6.23438L166.785 7.13538C167.112 7.29282 167.294 7.5071 167.393 7.81104L168.344 7.5ZM167.219 6.23438L167.653 5.33337C166.917 4.97919 165.926 4.79662 164.768 4.72088L164.703 5.71875L164.638 6.71662C165.709 6.78671 166.396 6.94789 166.785 7.13538L167.219 6.23438ZM164.703 5.71875L164.778 4.72153C163.627 4.63553 162.11 4.59375 160.234 4.59375V5.59375V6.59375C162.088 6.59375 163.55 6.6353 164.629 6.71597L164.703 5.71875ZM160.234 5.59375V4.59375H147.75V5.59375V6.59375H160.234V5.59375ZM147.75 5.59375H146.75V14.7031H147.75H148.75V5.59375H147.75ZM177.312 27H176.312V28H177.312V27ZM177.312 3V2H176.312V3H177.312ZM180.312 3H181.312V2H180.312V3ZM180.312 13.5H179.312V14.5H180.312V13.5ZM184.297 13.5V14.5H184.603L184.857 14.3282L184.297 13.5ZM199.812 3V2H199.506L199.252 2.17182L199.812 3ZM204.312 3L204.881 3.82263L207.518 2H204.312V3ZM187.312 14.75L186.744 13.9274L185.561 14.7448L186.739 15.5692L187.312 14.75ZM204.812 27V28H207.985L205.386 26.1808L204.812 27ZM200.312 27L199.746 27.824L200.002 28H200.312V27ZM184.312 16L184.879 15.176L184.623 15H184.312V16ZM180.312 16V15H179.312V16H180.312ZM180.312 27V28H181.312V27H180.312ZM177.312 27H178.312V3H177.312H176.312V27H177.312ZM177.312 3V4H180.312V3V2H177.312V3ZM180.312 3H179.312V13.5H180.312H181.312V3H180.312ZM180.312 13.5V14.5H184.297V13.5V12.5H180.312V13.5ZM184.297 13.5L184.857 14.3282L200.373 3.82818L199.812 3L199.252 2.17182L183.736 12.6718L184.297 13.5ZM199.812 3V4H204.312V3V2H199.812V3ZM204.312 3L203.744 2.17737L186.744 13.9274L187.312 14.75L187.881 15.5726L204.881 3.82263L204.312 3ZM187.312 14.75L186.739 15.5692L204.239 27.8192L204.812 27L205.386 26.1808L187.886 13.9308L187.312 14.75ZM204.812 27V26H200.312V27V28H204.812V27ZM200.312 27L200.879 26.176L184.879 15.176L184.312 16L183.746 16.824L199.746 27.824L200.312 27ZM184.312 16V15H180.312V16V17H184.312V16ZM180.312 16H179.312V27H180.312H181.312V16H180.312ZM180.312 27V26H177.312V27V28H180.312V27Z" fill="#0C2A42" mask="url(#path-1-outside-1_67_33)"/>
<path d="M34.8418 49.6641C34.8418 49.0846 34.7962 48.6289 34.7051 48.2969C34.6139 47.9648 34.4089 47.7207 34.0898 47.5645C33.7708 47.4017 33.276 47.2975 32.6055 47.252C31.9349 47.1999 31.0169 47.1641 29.8516 47.1445L24.4219 47.0664C23.0807 47.0469 22.0033 46.9655 21.1895 46.8223C20.3757 46.679 19.7604 46.4544 19.3438 46.1484C18.9271 45.8359 18.6471 45.4193 18.5039 44.8984C18.3672 44.3776 18.2988 43.7266 18.2988 42.9453C18.2988 42.0924 18.3932 41.3893 18.582 40.8359C18.7773 40.2826 19.1257 39.8496 19.627 39.5371C20.1348 39.2246 20.8509 39.0065 21.7754 38.8828C22.6999 38.7526 23.8945 38.6875 25.3594 38.6875H29.5391C30.8672 38.6875 31.974 38.7298 32.8594 38.8145C33.7448 38.8991 34.4479 39.0944 34.9688 39.4004C35.4896 39.7064 35.8607 40.1816 36.082 40.8262C36.3099 41.4707 36.4238 42.3561 36.4238 43.4824H34.5488C34.5488 42.61 34.4642 41.9525 34.2949 41.5098C34.1322 41.0605 33.8587 40.7546 33.4746 40.5918C33.097 40.429 32.5859 40.3411 31.9414 40.3281C31.2969 40.3151 30.4961 40.3086 29.5391 40.3086H25.457C24.2917 40.3086 23.3574 40.3314 22.6543 40.377C21.9577 40.4225 21.4303 40.5267 21.0723 40.6895C20.7142 40.8522 20.4733 41.1126 20.3496 41.4707C20.2324 41.8288 20.1738 42.3203 20.1738 42.9453C20.1738 43.4727 20.2161 43.8958 20.3008 44.2148C20.3854 44.5339 20.5742 44.778 20.8672 44.9473C21.1667 45.11 21.6257 45.224 22.2441 45.2891C22.8626 45.3477 23.7057 45.3835 24.7734 45.3965L30.5938 45.4746C31.9609 45.4941 33.0514 45.5755 33.8652 45.7188C34.6855 45.8555 35.2975 46.0801 35.7012 46.3926C36.1113 46.7051 36.3815 47.1283 36.5117 47.6621C36.6484 48.1895 36.7168 48.8568 36.7168 49.6641C36.7168 50.543 36.6322 51.2819 36.4629 51.8809C36.3001 52.4733 35.9811 52.9486 35.5059 53.3066C35.0306 53.6647 34.3438 53.9219 33.4453 54.0781C32.5469 54.2344 31.3652 54.3125 29.9004 54.3125H25.3301C23.9954 54.3125 22.8757 54.2539 21.9707 54.1367C21.0658 54.0195 20.3431 53.7852 19.8027 53.4336C19.2689 53.0755 18.8848 52.5449 18.6504 51.8418C18.416 51.1387 18.2988 50.2012 18.2988 49.0293H20.1738C20.1738 49.9473 20.2487 50.6569 20.3984 51.1582C20.5482 51.6595 20.8086 52.0208 21.1797 52.2422C21.5573 52.457 22.0814 52.5872 22.752 52.6328C23.429 52.6719 24.2884 52.6914 25.3301 52.6914H29.8027C30.9681 52.6914 31.8893 52.6556 32.5664 52.584C33.2435 52.5059 33.7448 52.3626 34.0703 52.1543C34.3958 51.9395 34.6042 51.6335 34.6953 51.2363C34.793 50.8392 34.8418 50.3151 34.8418 49.6641ZM43.793 54V39H45.668V54H43.793ZM69.3848 49.6641C69.3848 49.0846 69.3392 48.6289 69.248 48.2969C69.1569 47.9648 68.9518 47.7207 68.6328 47.5645C68.3138 47.4017 67.819 47.2975 67.1484 47.252C66.4779 47.1999 65.5599 47.1641 64.3945 47.1445L58.9648 47.0664C57.6237 47.0469 56.5462 46.9655 55.7324 46.8223C54.9186 46.679 54.3034 46.4544 53.8867 46.1484C53.4701 45.8359 53.1901 45.4193 53.0469 44.8984C52.9102 44.3776 52.8418 43.7266 52.8418 42.9453C52.8418 42.0924 52.9362 41.3893 53.125 40.8359C53.3203 40.2826 53.6686 39.8496 54.1699 39.5371C54.6777 39.2246 55.3939 39.0065 56.3184 38.8828C57.2428 38.7526 58.4375 38.6875 59.9023 38.6875H64.082C65.4102 38.6875 66.5169 38.7298 67.4023 38.8145C68.2878 38.8991 68.9909 39.0944 69.5117 39.4004C70.0326 39.7064 70.4036 40.1816 70.625 40.8262C70.8529 41.4707 70.9668 42.3561 70.9668 43.4824H69.0918C69.0918 42.61 69.0072 41.9525 68.8379 41.5098C68.6751 41.0605 68.4017 40.7546 68.0176 40.5918C67.64 40.429 67.1289 40.3411 66.4844 40.3281C65.8398 40.3151 65.0391 40.3086 64.082 40.3086H60C58.8346 40.3086 57.9004 40.3314 57.1973 40.377C56.5007 40.4225 55.9733 40.5267 55.6152 40.6895C55.2572 40.8522 55.0163 41.1126 54.8926 41.4707C54.7754 41.8288 54.7168 42.3203 54.7168 42.9453C54.7168 43.4727 54.7591 43.8958 54.8438 44.2148C54.9284 44.5339 55.1172 44.778 55.4102 44.9473C55.7096 45.11 56.1686 45.224 56.7871 45.2891C57.4056 45.3477 58.2487 45.3835 59.3164 45.3965L65.1367 45.4746C66.5039 45.4941 67.5944 45.5755 68.4082 45.7188C69.2285 45.8555 69.8405 46.0801 70.2441 46.3926C70.6543 46.7051 70.9245 47.1283 71.0547 47.6621C71.1914 48.1895 71.2598 48.8568 71.2598 49.6641C71.2598 50.543 71.1751 51.2819 71.0059 51.8809C70.8431 52.4733 70.5241 52.9486 70.0488 53.3066C69.5736 53.6647 68.8867 53.9219 67.9883 54.0781C67.0898 54.2344 65.9082 54.3125 64.4434 54.3125H59.873C58.5384 54.3125 57.4186 54.2539 56.5137 54.1367C55.6087 54.0195 54.8861 53.7852 54.3457 53.4336C53.8118 53.0755 53.4277 52.5449 53.1934 51.8418C52.959 51.1387 52.8418 50.2012 52.8418 49.0293H54.7168C54.7168 49.9473 54.7917 50.6569 54.9414 51.1582C55.0911 51.6595 55.3516 52.0208 55.7227 52.2422C56.1003 52.457 56.6243 52.5872 57.2949 52.6328C57.972 52.6719 58.8314 52.6914 59.873 52.6914H64.3457C65.5111 52.6914 66.4323 52.6556 67.1094 52.584C67.7865 52.5059 68.2878 52.3626 68.6133 52.1543C68.9388 51.9395 69.1471 51.6335 69.2383 51.2363C69.3359 50.8392 69.3848 50.3151 69.3848 49.6641ZM84.8789 54V40.5625H77.3789V39H94.2539V40.5625H86.7539V54H84.8789ZM101.047 54V39H115.773V40.5625H102.922V45.5625H115.236V47.125H102.922V52.4375H116.047V54H101.047ZM122.586 54V39H125.379L134.451 51.2363L143.387 39H146.18V54H144.305V40.6992L135.35 53.0137H133.65L124.461 40.6992V54H122.586ZM152.719 54L161.469 39H163.969L172.719 54H170.531L168.656 50.5625H156.781L154.906 54H152.719ZM157.719 49H167.719L162.719 40.25L157.719 49ZM195.186 49.6641C195.186 49.0846 195.14 48.6289 195.049 48.2969C194.958 47.9648 194.753 47.7207 194.434 47.5645C194.115 47.4017 193.62 47.2975 192.949 47.252C192.279 47.1999 191.361 47.1641 190.195 47.1445L184.766 47.0664C183.424 47.0469 182.347 46.9655 181.533 46.8223C180.719 46.679 180.104 46.4544 179.688 46.1484C179.271 45.8359 178.991 45.4193 178.848 44.8984C178.711 44.3776 178.643 43.7266 178.643 42.9453C178.643 42.0924 178.737 41.3893 178.926 40.8359C179.121 40.2826 179.469 39.8496 179.971 39.5371C180.479 39.2246 181.195 39.0065 182.119 38.8828C183.044 38.7526 184.238 38.6875 185.703 38.6875H189.883C191.211 38.6875 192.318 38.7298 193.203 38.8145C194.089 38.8991 194.792 39.0944 195.312 39.4004C195.833 39.7064 196.204 40.1816 196.426 40.8262C196.654 41.4707 196.768 42.3561 196.768 43.4824H194.893C194.893 42.61 194.808 41.9525 194.639 41.5098C194.476 41.0605 194.202 40.7546 193.818 40.5918C193.441 40.429 192.93 40.3411 192.285 40.3281C191.641 40.3151 190.84 40.3086 189.883 40.3086H185.801C184.635 40.3086 183.701 40.3314 182.998 40.377C182.301 40.4225 181.774 40.5267 181.416 40.6895C181.058 40.8522 180.817 41.1126 180.693 41.4707C180.576 41.8288 180.518 42.3203 180.518 42.9453C180.518 43.4727 180.56 43.8958 180.645 44.2148C180.729 44.5339 180.918 44.778 181.211 44.9473C181.51 45.11 181.969 45.224 182.588 45.2891C183.206 45.3477 184.049 45.3835 185.117 45.3965L190.938 45.4746C192.305 45.4941 193.395 45.5755 194.209 45.7188C195.029 45.8555 195.641 46.0801 196.045 46.3926C196.455 46.7051 196.725 47.1283 196.855 47.6621C196.992 48.1895 197.061 48.8568 197.061 49.6641C197.061 50.543 196.976 51.2819 196.807 51.8809C196.644 52.4733 196.325 52.9486 195.85 53.3066C195.374 53.6647 194.688 53.9219 193.789 54.0781C192.891 54.2344 191.709 54.3125 190.244 54.3125H185.674C184.339 54.3125 183.219 54.2539 182.314 54.1367C181.41 54.0195 180.687 53.7852 180.146 53.4336C179.613 53.0755 179.229 52.5449 178.994 51.8418C178.76 51.1387 178.643 50.2012 178.643 49.0293H180.518C180.518 49.9473 180.592 50.6569 180.742 51.1582C180.892 51.6595 181.152 52.0208 181.523 52.2422C181.901 52.457 182.425 52.5872 183.096 52.6328C183.773 52.6719 184.632 52.6914 185.674 52.6914H190.146C191.312 52.6914 192.233 52.6556 192.91 52.584C193.587 52.5059 194.089 52.3626 194.414 52.1543C194.74 51.9395 194.948 51.6335 195.039 51.2363C195.137 50.8392 195.186 50.3151 195.186 49.6641Z" fill="#0C2A42"/>
</g>
<defs>
<clipPath id="clip0_67_33">
<rect width="210" height="56" fill="white"/>
</clipPath>
</defs>
</svg>
